<?xml version="1.0" encoding="utf-8"?>
<!-- Generator: Adobe Illustrator 24.0.1, SVG Export Plug-In . SVG Version: 6.00 Build 0)  -->
<svg version="1.1" id="Layer_1" xmlns="http://www.w3.org/2000/svg" xmlns:xlink="http://www.w3.org/1999/xlink" x="0px" y="0px"
	 viewBox="0 0 600 600" style="enable-background:new 0 0 600 600;" xml:space="preserve">
<style type="text/css">
	.st0{fill:#020303;}
	.st1{fill:#E0E3E8;}
	.st2{fill:#DFE2E7;}
	.st3{fill:#E1E4E9;}
	.st4{fill:#DDE0E5;}
	.st5{fill:#DEE1E6;}
	.st6{fill:#888B8E;}
	.st7{fill:#DFE2E6;}
	.st8{fill:#898C8F;}
	.st9{fill:#E0E3E7;}
	.st10{fill:#DFE1E6;}
	.st11{fill:#DCDFE4;}
	.st12{fill:#DADDE2;}
	.st13{fill:#878A8D;}
	.st14{fill:#898B8E;}
	.st15{fill:#DDE0E4;}
	.st16{fill:#DEE1E5;}
	.st17{fill:#DEE0E5;}
	.st18{fill:#DBDEE3;}
	.st19{fill:#DCDFE3;}
	.st20{fill:#DDDFE4;}
	.st21{fill:#D9DCE1;}
	.st22{fill:#D4D7DC;}
	.st23{fill:#888A8D;}
	.st24{fill:#8A8D90;}
	.st25{fill:#D7DADF;}
	.st26{fill:#D6D9DE;}
	.st27{fill:#D8DBE0;}
	.st28{fill:#84878A;}
	.st29{fill:#85888B;}
	.st30{fill:#86888B;}
	.st31{fill:#D0D3D7;}
	.st32{fill:#DADDE1;}
	.st33{fill:#DBDEE2;}
	.st34{fill:#848689;}
	.st35{fill:#D4D6DB;}
	.st36{fill:#D5D8DC;}
	.st37{fill:#838689;}
	.st38{fill:#CCCED3;}
	.st39{fill:#D8DBDF;}
	.st40{fill:#D7DADE;}
	.st41{fill:#CFD2D6;}
	.st42{fill:#D6D9DD;}
	.st43{fill:#CFD1D6;}
	.st44{fill:#D5D8DD;}
	.st45{fill:#D2D4D9;}
	.st46{fill:#D3D6DB;}
	.st47{fill:#CFD2D7;}
	.st48{fill:#D9DBE0;}
	.st49{fill:#7F8285;}
	.st50{fill:#D4D7DB;}
	.st51{fill:#D9DCE0;}
	.st52{fill:#CED1D5;}
	.st53{fill:#C6C8CD;}
	.st54{fill:#888B8D;}
	.st55{fill:#D5D7DC;}
	.st56{fill:#CACCD1;}
	.st57{fill:#C7CACE;}
	.st58{fill:#818487;}
	.st59{fill:#828588;}
	.st60{fill:#CDD0D5;}
	.st61{fill:#C9CCD0;}
	.st62{fill:#C6C9CD;}
	.st63{fill:#C4C7CB;}
	.st64{fill:#D1D3D8;}
	.st65{fill:#CACDD1;}
	.st66{fill:#CBCED2;}
	.st67{fill:#CBCDD2;}
	.st68{fill:#86898C;}
	.st69{fill:#CED0D5;}
	.st70{fill:#8D9093;}
	.st71{fill:#D7D9DE;}
	.st72{fill:#C4C6CA;}
	.st73{fill:#CDD0D4;}
	.st74{fill:#87898C;}
	.st75{fill:#8C8E92;}
	.st76{fill:#C2C5C9;}
	.st77{fill:#C3C6CA;}
	.st78{fill:#CED1D6;}
	.st79{fill:#C3C5CA;}
	.st80{fill:#BFC1C5;}
	.st81{fill:#B6B9BD;}
	.st82{fill:#B8BBBF;}
	.st83{fill:#D2D5DA;}
	.st84{fill:#CCCFD4;}
	.st85{fill:#808285;}
	.st86{fill:#818386;}
	.st87{fill:#C0C3C7;}
	.st88{fill:#B8BABE;}
	.st89{fill:#CACDD2;}
	.st90{fill:#BDBFC3;}
	.st91{fill:#6B6D6F;}
	.st92{fill:#BDC0C4;}
	.st93{fill:#BABCC0;}
	.st94{fill:#CDCFD4;}
	.st95{fill:#D2D5D9;}
	.st96{fill:#C5C8CC;}
	.st97{fill:#D1D4D9;}
	.st98{fill:#C9CBD0;}
	.st99{fill:#A2A4A8;}
	.st100{fill:#727577;}
	.st101{fill:#333435;}
	.st102{fill:#A3A5A8;}
	.st103{fill:#CCCFD3;}
	.st104{fill:#5E6061;}
	.st105{fill:#B3B5B9;}
	.st106{fill:#B7B9BD;}
	.st107{fill:#CBCED3;}
	.st108{fill:#909295;}
	.st109{fill:#797B7D;}
	.st110{fill:#5B5D5F;}
	.st111{fill:#A9ABAF;}
	.st112{fill:#949699;}
	.st113{fill:#C2C4C9;}
	.st114{fill:#8C8D90;}
	.st115{fill:#999B9E;}
	.st116{fill:#9C9EA1;}
	.st117{fill:#ADB0B3;}
	.st118{fill:#B8BBBE;}
	.st119{fill:#4D4E50;}
	.st120{fill:#2C2C2D;}
	.st121{fill:#9FA1A4;}
	.st122{fill:#B2B5B9;}
	.st123{fill:#212223;}
	.st124{fill:#0F0F0F;}
	.st125{fill:#7A7B7E;}
	.st126{fill:#76787A;}
	.st127{fill:#95979A;}
	.st128{fill:#2D2E2F;}
	.st129{fill:#252526;}
	.st130{fill:#85888A;}
	.st131{fill:#85878A;}
	.st132{fill:#848789;}
	.st133{fill:#818486;}
	.st134{fill:#75777A;}
	.st135{fill:#828587;}
	.st136{fill:#808385;}
	.st137{fill:#7F8284;}
	.st138{fill:#828487;}
	.st139{fill:#808386;}
	.st140{fill:#7E8183;}
	.st141{fill:#7B7E81;}
	.st142{fill:#75787A;}
	.st143{fill:#7F8184;}
	.st144{fill:#7B7E80;}
	.st145{fill:#747679;}
	.st146{fill:#7A7C7F;}
	.st147{fill:#7D8083;}
	.st148{fill:#7C7E81;}
	.st149{fill:#797C7F;}
	.st150{fill:#76787B;}
	.st151{fill:#737678;}
	.st152{fill:#6F7274;}
	.st153{fill:#7E8184;}
	.st154{fill:#232425;}
	.st155{fill:#6E7073;}
	.st156{fill:#777A7D;}
	.st157{fill:#686A6C;}
	.st158{fill:#797B7E;}
	.st159{fill:#707274;}
	.st160{fill:#6B6E70;}
	.st161{fill:#28292A;}
	.st162{fill:#2E3031;}
	.st163{fill:#37393A;}
	.st164{fill:#616466;}
	.st165{fill:#3F4142;}
	.st166{fill:#606264;}
	.st167{fill:#77797C;}
	.st168{fill:#494B4D;}
	.st169{fill:#484A4B;}
	.st170{fill:#212222;}
	.st171{fill:#636567;}
	.st172{fill:#313233;}
	.st173{fill:#303233;}
	.st174{fill:#383A3B;}
	.st175{fill:#56585A;}
	.st176{fill:#3F4042;}
	.st177{fill:#4E5152;}
	.st178{fill:#696C6E;}
	.st179{fill:#494B4C;}
	.st180{fill:#1E1F20;}
	.st181{fill:#1D1E1F;}
	.st182{fill:#2C2E2F;}
	.st183{fill:#1F2021;}
	.st184{fill:#B9BCC0;}
	.st185{fill:#313334;}
</style>
<g id="Rectangle_-_white">
	<g>
		<g>
			<path class="st0" d="M271.2,30.5c-0.7,1.4-1.6,2.6-3.4,2c-4.7-1.5-9.3-0.4-12.7,2.4c-6,4.8-12,2.7-18.4,1.8
				c-8-1.1-16.1-2.9-24.2-0.2c-0.7-0.7-1.6-0.7-2.4-0.8c0.8,0.2,1.8,0.1,2.5,0.8c-0.1,3.1-1.9,4-4.7,4.7
				c-6.1,1.5-10.9,5.3-14.6,10.5c-1.2,4.7-6.9,4-9.1,7.4c-5.3-1-7.2,4.7-11.3,6c-2.7,1.7-5.2,3.9-8.2,5.2c-0.9,0.4-1.9,0.4-2.6,1.3
				c1.1,0,1.9,0.5,2.5,1.4c-4.1,3.4-8.2,6.8-12.2,10.1c-4-2.9-5.9,0.1-9.4,2.7c4.6,0.4,6.2-3.6,9.5-2.7c-2.1,6.9-7.5,12-10.3,18.6
				c0,1.2-0.7,1.9-1.6,2.5c-4.4,2.2-6.7,5.5-5.8,10.5c-3.7,2.4-6.4,1.7-7.5-2.8c-0.6-2.3-1.5-4-3.8-4.9c0.5-3.9,5.8-4.5,6-8.8
				c-4.2-0.1-5.5,5.3-9.6,4.7c-3.5,2.1-6.2,4.4-2.9,8.8c1.7,2.3,0,3.6-1.9,4.7c-6.1-1.2-10.2,0.7-11.2,7.3c-0.1,0.7-0.5,1.2-0.9,1.7
				c-6.3-0.2-10.9,6-17.5,4.5c-1.5-0.2-1.3-4.1-3.7-2.1c-2.4,2-4.8,4.4-2.8,8.1c-3.4,2.1-7.3,3.5-9.1,7.6c-4.4,3.6-6.3,8.9-9.1,13.5
				c-6.1-1-7.5,3.3-8.8,7.8c-0.4,3.9-1.7,7.2-5.7,8.8c-3.1,0.1-2.8,4.4-6.5,4.8c1.1-3.8,2.1-7.2,3.1-10.6c0.2-2.8,2.4-4.8,3.3-7.5
				c-1.1,0.5-1.9,1.6-3.2,1c-2.3-1.2-3.3-2.4-1.7-5.3c17.5-31.5,39.7-58.8,67-82.4c17.3-14.9,34.7-29.4,55.2-39.5
				c25.7-12.6,52.4-22.2,80.5-27.9c10.9-2.3,21.2-1.2,31.6,2.6c6.4,2.3,13.4,5.1,19.9,4.7c15.8-1,31.6-1.7,47.4-1
				c22.1,1,44,5.1,63.8,14.6c13,6.3,24.5,16.7,37.7,22.7c19.1,8.6,32,24.8,48.5,36.4c8,5.6,13.2,15.4,19.6,23.3
				c1.4,1.7,2.4,4.2,4.1,5.2c5.1,2.7,4.1,5.6,1.1,9.1c-2.2-0.8-2.7-3.2-4.4-4.9c1.3,2.1,2.7,3.8,3.7,5.7c3.9,2.9,3.9,9,8.7,11.2
				c4.9,1,5.1,6.2,8,9.1c2,3.4,3.4,7.3,7.4,9c1.1,2,2.7,3.7,3.6,5.9c0.8,2.1,2.3,4,2.3,6.4c-1.4,6.9,1.6,13.1,3.1,19.5
				c1.1,5.5,3.4,10.7,4.7,16.2c-3.7,5.8-0.9,12.2-1.8,18.2c-0.9,1.2-1.7,2.4-2.5,3.7c-1.8,2.9-1.5,6.1,0.9,8.2
				c3.6,3.1,4-2.3,6.3-2.9c4.3,4.6,4.7,10.3,4.3,16.1c-6,4.8-3.6,11-2.9,16.9c-2.2,4.7,1.2,8.2,2.7,12.1c2.9,4.1,2.6,9.4,4.7,13.7
				c-1.6,1.4-0.6,5.1-3.4,5.1c-2.5,0-3.3-3-4.2-4.8c-4.3-8.5-4.5-18.1-6-27.3c-0.4-2.2-0.3-4.5-0.9-6.6c-1.3-4.5,1.3-14.4-9.1-6.8
				c-0.1,0.1-1.5-1.7-2.3-2.6c-0.7-0.9-0.8-1.9-0.6-3c1.9-6.9-2.5-9.3-7.9-11.1c-1.6-3.5-3.2-3.5-4.9-0.1c-2,3.9-4.1,7.8-6.2,11.8
				c-0.7,0.2-1.5,0.2-2.2,0c-4.4-1.5-8.4-0.7-9.7,4.1c-1.4,5.3,2.7,6.8,6.9,7.8c0.7,0.2,1.4,0.5,2,0.9c1.7,3.2-3.4,6.8,0.6,9.9
				c0.1,0.5,0.2,1,0,1.4c-3.7,9.6-3.8,9.6,4.2,15.3c-7.4,0.8-6,6.4-6,11.2c0,1.9,0.6,4.6-1.6,5.3c-3,0.9-2.2-2.5-3.3-3.8
				c-3.5-3.9-3.9-9.8-8.5-13c-2.4-2-4.7-4-4.6-7.5c2.3-5.5-0.6-9-4.7-12.1c-0.4-0.6-0.5-1.2-0.3-1.9c2.7-4.4,0.5-7.3-3-9.8
				c-1.1-0.8-2.1-1.7-2.5-3c-2.3-2.8-5.9-4.2-7.5-7.7c0.3-1.9,1.9-2.9,3.2-4c1.9-1.8,3.6-3.7,2.5-6.5c-1-2.6-3.3-3.7-5.9-3.9
				c-3-0.2-5.3,0.9-7,3.5c-1.3,2-0.5,4.5-1.9,6.4c-4.4,0-8.7,0.5-11.5,4.5c-0.7-0.3-1.2-0.7-1.6-1.3c-4.9-7.2-9.1-7.9-16.3-2.4
				c-2.6,5.9,4.7,6.8,5.6,11c2.6,3.3,4.2,7.9,9.5,8c-0.7,3-3.5,3-5.5,4.3c-5.4,1.4-4.1,6.3-5.3,10c-4.6,6.7-9.2,13.4-13.8,20.2
				c-4.9,1.9-10.5-0.9-15.2,2.5c-3.5,2.5-7.1,4.9-1.9,9.1c3.2,2.8,7.8,1.1,11.1,3.4c5.4,1.7,4.6,6.1,4.5,10.2
				c-2.7,3.2-7,1.8-10.2,3.8c-2.3,1.4-5.3,2.4-5.1,5.7c0.2,3.2,3,4.2,5.6,5.1c1.8,0.6,4,0.6,5.1,2.5c1.5,4.1-5.2,6-2.8,10.4
				c-1.9,4.6-6.5,6.8-9.5,10.4c-5.6-1.6-6.7,4-9.6,6.4c-4.8,3.9-8.8,8.6-11.2,14.5c-2,2.6-4.9,1.9-7.6,2.3c-3,0.4-5.9,1.2-8.2,3.2
				c-3.9,3.1-3.4,6.4,1.1,8.5c2.4,1.1,5.6,0.4,7.3,3.2c0,4.5,1.3,8.2,5.9,9.8c-0.5,1.1-1.5,1.5-2.6,1.8c-4.1,0.6-8.5,0.3-12.2,2.9
				c-1.7,1.2-3.3,2.4-2.8,4.8c0.5,2.2,2.3,3.2,4.3,3.6c4,0.8,7.9,0.3,11.9-0.3c1.1,0,2.1,0.2,2.9,1.1c-2.2,3.6-1.4,7.7-1.4,11.6
				c-1.5,2.7-4.2,2.1-6.6,2.3c-4.2,0.4-8.8,0.3-11,4.6c-2.3,4.4,4.3,4.8,4.4,8.4c-4.1,4.6-12.7,6.2-9.8,15.2
				c2.5,1.9,4.6,4.1,5.2,7.4c-8.7,3.3-16.3,7.7-19.7,17.4c-1.9,5.5-5.1,10.6-7.8,15.9c-0.8,0.9-1.8,1.1-2.9,1
				c-11-1.4-15,0.2-17.9,7.4c-5.7,6.4-14.8,7.3-19.9,1.8c1.2-7.4,1-7.6-8.4-8.6c-1.5-0.3-2.9-0.5-3.6-2.1c4.1-1.7,1.6-4.8,1.5-7.4
				c2.1-3,5.6-2.7,8.6-3.7c1.4-0.5,2.9-1.1,3.1-2.8c0.3-2.1-1.3-3.1-2.9-3.8c-4.2-1.9-8.7-1-13.1-0.9c-0.7-0.1-1.3-0.4-1.8-1
				c-0.9-4.2-1.8-8.3-2.7-12.5c5.2-0.8,10.3,1,15.5,0.1c2.5-0.5,5.2-0.9,5.3-4.1c0-2.7-2.3-3.6-4.5-4.3c-7.6-2.5-13.5,0.1-18.3,6.1
				c-6-13.2-8.5-26.3-5.3-41.2c3.4-15.8,2.7-32.1-10.4-44.7c-3.7-3.5-4.3-7,0.2-10.6c3-2.4,2.8-5.1-0.6-7.3c-2.8-1.7-5-3.8-5.2-7.3
				c1-4.6-3.1-4.4-5.2-4.5c-4.8-0.2-8.4-2.1-12.2-4.9c-3.4-2.5-7.5-2.9-12.1-2.4c-13.1,1.6-26.3,2.6-39.3-2.1
				c-4.5-1.6-7.1-6.7-12.5-6.2c-0.2-0.7-0.2-1.4,0-2.1c2.1-7.4,1.6-8.3-7-11.6c-1-0.5-1.7-1.2-1.6-2.5c0.2-3.8-3.5-6.6-2.9-10.6
				c2.4-2.4,5.2-0.4,7.8-0.8c3.3-0.5,6.9-1.1,7.4-5c0.5-3.9-2.9-5.4-5.9-6.8c-4.7-2.2-9.2,1.2-13.8,0.2c2-5,4.1-9.9,6.1-14.9
				c2.8-2.1,5.8-0.2,8.7-0.4c3.4-0.2,6.9-0.8,7.8-4.5c1-4.1-2.4-5.6-5.3-7c-2.2-1.1-5-1-6.7-3.1c0.5-3.4,1-6.8,1.5-10.2
				c1.8-2.3,4.2-0.9,6.3-0.9c3.4,0,6.7-0.4,8.5-3.6c2-3.5-1-5.4-3-7.6c-0.9-0.9-1.7-1.8-1.5-3.2c3.8-3,8.3-5.4,9.2-10.9
				c-0.2-1.9,0.8-2.8,2.7-2.9c7.2-6,13.5-12.9,18.5-20.9c0.7-0.4,1.5-0.6,2.1-0.2c7.7,4.4,13.6,1.5,19-4.3c4.2-2,8.3-4,13.1-2.2
				c2.2,3.7,0.7,9.6,7.2,10.7c6.1,1,9.1-0.7,12.4-8.4c5,0.4,5.1,4.6,4.4,7.4c-1.5,5.9,1.5,8,6.1,9.7c2.7,1,5.8,1.7,7.1,4.7
				c0.3,3.8-3.5,8.2,1.8,11.4c4.1,2.5,8,2.2,12,0.2c3.3-1.7,4.2-4,2.3-7.3c-0.6-1.4-1.1-2.7-0.3-4.2c6.4-5.5,10.5-4.8,18.4,2.9
				c1.3,5,3.9,8.5,9.5,9.2c7.1,0.8,10.1-4,13-9.1c6.6-0.9,9.9-4.5,10.3-11.2c0.1-2.4,0.9-4.8,2.1-7c2-2.2,4.1-0.6,6.2-0.2
				c2.5,0.5,4.9,0.2,7.2-1c2.1-1.1,3.9-2.5,3.5-5.2c-0.3-2.2-2.2-3.3-4.1-3.8c-5.4-1.4-10.3-0.7-14.1,3.9c-4.2,3.4-9.2,4.2-14.4,4.4
				c-0.8-0.7-1.4-1.5-1.9-2.5c-3-5.6-9.2-4.1-13.8-6.3c-3-2.4-4.5-5.2-3.1-9.1c2.2-3,5.9-1.9,8.8-3.1c2.1-0.9,4.2-2,4.1-4.6
				c-0.1-2.7-2.2-3.6-4.4-4.4c-5.5-1.8-9.3,0.5-12.9,7.7c-1.8,2.2-2.9,4.6-1.8,7.5c1,2.7,0.4,5.4-0.8,7.9c-0.8,1.8-1.7,3.8-4.1,3.7
				c-2.2-0.1-3.7-1.4-4.6-3.3c-1.9-4-4-8-4.3-12.6c1.5-6.2-0.2-10.4-7.3-10.9c-1,0-1.9,0.1-2.9,0.2c-3.4,0.2-4.8,4.7-8.6,4.2
				c-1.6-0.8-3.1-2-3.6-3.6c-2.3-7.3-7.5-9.3-14.5-8.3c-5.9,0.8-12.2-0.7-16.3,6c-1.9,3.1-4.2,6.8-8.7,7.4c-2-1.9-2.1-5-4.4-6.7
				c-3.3-2.4-6.5-2.1-9.7,0c-1.8,1.1-3.2,2.7-2.2,4.9c1.4,3.2,4.3,3.8,7.4,3.9c2.4,0.1,5-1.3,6.9,1.3c1.7,4.4,0.3,8.4-1.5,12.4
				c-1.1,1.5-2.7,1.3-4.1,0.8c-7.9-3-13,0.2-16.4,7.3c-11.2-12.7-4.5-25.4,0.4-37.9c1.2-3.1,4.4-3.9,7.5-4.2
				c2.4-0.3,5.1,0.8,7.2-1.3c0.5-0.9,1.3-1.3,2.3-1.6c9.9-3,9.9-3,4.7-11.9c6.1-2.2-0.9-5.2,0.5-7.7c2.9-2.8,7.6-3.5,9.2-7.8
				c0.4-0.6,1-1,1.6-1.2c4.7-4.8,10.5-8.7,13.3-15.2c0.6-0.4,1.3-0.4,2,0c2.6,2.2,5.3,3.7,8.6,1.5c2.7-1.8,2-4.2,0.9-6.5
				c-0.2-0.7-0.2-1.4,0-2c3.5-2.4,1.6-5.1,0.5-7.8c0.1-0.3,0.1-0.7,0.2-1c1-2.6,4-5,0.2-7.7c-0.8-0.5-1.6-1.1-1.9-2.2
				c2.2-3.4-2.1-5.7-1.4-8.9c0.5-0.2,0.9-0.4,1.4-0.4c2.1-0.2,5,0.5,5.7-2.3c0.7-3-3.1-2.7-4.2-4.5c0.6-2.7,1.1-5.4,1.7-8
				c3.1-1.6,6-3.3,2.8-7.3c1-1.9,3.2-3.2,3-5.7c0.5-2.9,3-5.1,2.8-8.2c-0.9-7.7-0.9-7.7,3.7-12.1C284.2,29.5,277.7,28.2,271.2,30.5z
				"/>
			<path class="st0" d="M18.5,300.1c-0.2-5.8,0.8-11.4,3-16.7c2.6-0.1,4.4,4.3,7.3,1.6c1.9-1.7,1.3-4.1,0.7-6.4
				c-1.1-4.3-4.4-4.1-7.7-3.7c0.4-6.2-3.6-13.8,5.6-17.2c3,0.9,5.7,2.2,7.6,4.9c1.4,2,2.3,4.6,4.2,6c5.1,3.6,6.1,9.1,7.8,14.4
				c-1.5,2.9-5.9,3.7-5.4,8.2c0.7,6.1,5,7.6,12.8,4.2c3.5,8,7,16,10.6,24c-3.6,9.4-3.3,10.9,3.7,15.2c1.9,0.9,4.1,1.2,5.3,3.2
				c5.4,6.7,11.7,12.6,18.4,18c-4.4,11,2.1,17.5,16.2,14.9c-0.8,5.5,2,11.5-1.9,16.7c-2.4,0.7-4.3-0.7-6.3-1.4
				c-2.8-1-5.9-2.3-7.9,0.9c-1.8,2.9,0.6,5,2.2,7.1c1.3,1.6,3.9,2.4,3.4,5.2c0,3.1-0.4,6.2,1.5,9c-0.4,0.6-0.9,1.1-1.5,1.4
				c-7.4,4.1-2.2,7.4,0.7,10.8c0.7,0.8,1.3,1.6,1.2,2.8c-3.3,2.7-1.4,6.4-1.7,9.7c0.5,2.3,0.2,4.2-2,5.6c-4.1-5.4-7.3-2.1-10,1.3
				c-2.2,2.7-1.7,6.2-1.8,9.4c-1,0.8-2.2,0.8-3.5,0.7c-3.7-0.2-3.6,1.4-1.8,3.9c1.8,2.5,5,4,5.4,7.5c0,2.4,0,4.9,0,7.3
				c0.2,1.3-0.2,2-1.6,1.4c-3.4,0.3-8.1,0.4-2.9,5.1c3.7,3.3,2.5,6.5,1.5,10.1c-4.9,2.3-6.6-3.3-10.3-4.2c-0.1-4.3-4.4-6.9-4.7-11.1
				c1.6-1,3.3,0.6,5.3-0.3c-2.1-5.2-7.6-6.5-11.1-9.9c-8.1-9-11.2-20.7-16.9-31.1c-2.2-4.1-2.5-9.2-6-12.6c-2.5-1.3-4.3-2.9-2.6-6
				c1.6-5.9-2.2-10.5-3.7-15.6c-1.8-4.5-5.5-8.4-4.5-13.8c1-4.2-0.8-7.6-2.7-11c3.7-6.2,0-11-3.2-15.8c-0.3-0.7-0.2-1.4,0-2
				c-1.1-4.2-2.9-8.3-2.7-12.9c2-0.7,4.3,2.5,6-0.1c1.4-2.3,0-4.7-1.1-6.9c-1.4-2.7-3.8-4.3-6.2-6c-4.5-8.2-0.6-16.2,0.8-24.2
				c2.8,1.8,1.7,5,2.8,7.4c0.7,1.6,1.1,3.9,3.3,3.4c2.6-0.6,2-3.1,1.8-5C25.5,302.7,22.5,300.9,18.5,300.1z"/>
			<path class="st1" d="M263.2,351.2c2,2.2,4.8,3.9,5.2,7.3c-4.8,8.3-18,10.3-24.9,3.8c-4.1-3.9-3.1-8.5,2.3-11.2
				C251.8,348.2,257.5,349.9,263.2,351.2z"/>
			<path class="st1" d="M253.9,376.4c7.2,0.1,14.5,5,14.2,9.4c-0.3,4.4-7.2,7.8-14.7,7.3c-7.3-0.5-12.8-4.6-12.5-9.2
				C241.2,379.6,246.9,376.3,253.9,376.4z"/>
			<path class="st1" d="M424.4,385.8c-3.7-0.2-8.4-1.1-9.6-5.8c-1.3-5,3.1-7.6,6.9-9.3c5.5-2.5,11.4-3.8,16.9,0.5
				c2.2,1.7,2.9,3.8,1.6,6.6C438.1,381.9,431.2,385.8,424.4,385.8z"/>
			<path class="st1" d="M215.4,390.4c-9.6,0-17.3-4.6-16.5-9.4c1-6.2,6.1-7.1,11.4-7.2c7.7,0,15.6,4.8,14.8,9.6
				C224.1,389.8,218.8,390.3,215.4,390.4z"/>
			<path class="st2" d="M211.1,346.8c7.5,0,14.7,4.7,14.1,9.5c-0.7,6.6-6.2,7.1-11.2,7.4c-7.3,0.4-14.4-4.2-14.7-9
				C199,350.3,204.4,346.7,211.1,346.8z"/>
			<path class="st3" d="M413.9,352.5c0.3-6.1,5.4-7.9,9.5-10.4c4.1-0.4,8.3-1.5,12.3,0.6c5,2.7,5.8,6.6,1.9,10.8
				C431.1,360.7,419.7,360.2,413.9,352.5z"/>
			<path class="st1" d="M251.4,403.4c10.3,0.1,17.2,4.3,16.7,8.9c-0.5,4.2-7.8,7.6-15.1,6.6c-5.3-0.8-12.3-1.8-11.6-8.8
				C242,403.8,248.5,403.6,251.4,403.4z"/>
			<path class="st2" d="M169.6,342.3c7.3,0,15.4,5.5,14.8,10.3c-0.8,5.6-5.6,6.7-10.1,7c-7.3,0.5-14.8-5.1-14.4-10.3
				C160.4,343.3,165.4,343.1,169.6,342.3z"/>
			<path class="st2" d="M173.4,386.4c-7.7-0.4-15.2-5.8-14.4-10.4c1.1-6,6.1-6.8,11.1-6.6c7.1,0.3,14.5,5.8,13.7,10.4
				C182.7,385.9,177.7,386.3,173.4,386.4z"/>
			<path class="st2" d="M423.8,411.5c-4.2,0-8.5-0.5-9.5-5.3c-0.9-4.4,2.8-6.5,6.1-8.4c0.2-0.1,0.4-0.2,0.7-0.3
				c5.6-2.3,11.2-4.3,16.9-0.1c2.1,1.6,2.8,3.7,1.6,5.9C436.1,409.4,430.4,411.5,423.8,411.5z"/>
			<path class="st2" d="M256,443.8c-5-0.9-10.4-1.2-13.8-6.1c-1.2-1.7-0.9-3.5,0.3-4.8c4-4.2,9.1-4.9,14.5-3.8
				c4.9,1,11.2,1.9,10.9,8C267.6,443.4,260.7,442.6,256,443.8z"/>
			<path class="st1" d="M213.9,416.2c-0.2,0-0.5-0.1-0.7-0.1c-6.1-0.1-12-1.5-13.6-8c-1.1-4.6,3.3-6.2,7-7.1
				c7.1-1.7,16.5,2.1,18.2,7.1C226.6,413,222,416.4,213.9,416.2z"/>
			<path class="st4" d="M131.6,336.3c6.6,0.2,14.8,6.3,14.2,10.7c-0.7,5.1-4.7,6.8-9.3,6.8c-6.8,0.1-13.7-5.3-13.4-10.6
				C123.3,337.6,127.7,336.9,131.6,336.3z"/>
			<path class="st2" d="M175.8,412c-5.6-0.1-9.9-0.9-13.4-4.3c-1.9-1.9-3.1-4-2.4-6.6c0.7-2.7,2.9-4,5.4-4.5c4.3-1,8.5-0.3,12.3,1.8
				c3.5,1.9,7.4,4.1,6.2,8.9C182.8,411.8,178.5,411.8,175.8,412z"/>
			<path class="st5" d="M461.6,325.5c-3.7-0.8-8.5-1.3-8.8-7.3c-0.3-4.9,6.5-10.3,12.9-10.2c4.8,0.1,9.2,1.7,9.7,7.2
				C475.7,319.9,468.3,325.3,461.6,325.5z"/>
			<path class="st2" d="M463,378.9c-3.5-0.2-7.5-1.1-7.8-6.3c-0.3-4.8,7.9-10.9,14.5-10.9c4.3,0,8.1,1.4,8.4,6.6
				C478.3,373.6,471,378.9,463,378.9z"/>
			<path class="st5" d="M463.1,352.5c-3.7-1.2-8.5-1.5-8.2-7.5c0.2-4.9,7.7-10.4,14-10.2c4.7,0.2,8.5,2,8.6,7.4
				C477.5,346.9,469.3,352.7,463.1,352.5z"/>
			<path class="st6" d="M165.8,292.2c4.9-3.4,10-4.1,15.5-1.8c3.9,1.7,7.3,4.2,6.7,8.8c-0.6,4.7-4.7,6.3-8.8,6.5
				c-2.9,0.2-5.9-0.7-8.8-1c-1-1-2-2-3-3c-1.3-1.9-1.4-4.4-2.9-6.2C164.9,294.3,165.4,293.2,165.8,292.2z"/>
			<path class="st1" d="M422.2,436.1c-4.4,0-8.2-0.7-9.4-4.4c-1.2-4,2.3-6.2,5.4-8c4.5-2.5,9.4-3.1,14.4-2.4
				c2.4,0.3,4.4,1.2,5.3,3.5c1.1,2.8-0.9,4.8-2.7,6.4C431.3,434.6,426.5,435.8,422.2,436.1z"/>
			<path class="st2" d="M215.9,441.1c-4.5-0.2-8.7-0.9-12.1-3.6c-2-1.6-3.9-3.4-3.2-6.3c0.6-2.8,3.1-4,5.4-4.6c4.1-1,8.4-1,12.4,0.8
				c3.7,1.6,8.2,3.4,7.5,8C225.1,440.5,220,440.7,215.9,441.1z"/>
			<path class="st2" d="M134.1,309.6c6.7,0.1,14.2,5.6,13.6,10.1c-0.7,5.6-5.2,6.9-10,6.9c-6.4,0-12.5-4.7-12.4-9.6
				C125.4,310.9,130.1,310.3,134.1,309.6z"/>
			<path class="st5" d="M136.6,380.8c-7.1-0.1-15.1-6.2-14.5-11.1c0.6-4.8,4.2-6.4,8.6-6.4c6.9,0.1,14.4,5.9,14,11
				C144.3,379.6,140.2,380.2,136.6,380.8z"/>
			<path class="st6" d="M284.6,462.4c-0.4-7.6,5.7-8,10.6-8.8c5.5-0.9,11.6-0.4,14.6,4.8c2.8,5-2.1,7.3-5.9,8.1
				c-5.8,1.3-11.8,1.4-17.4-1.8C285.9,463.9,285.2,463.2,284.6,462.4z"/>
			<path class="st1" d="M461.9,281.8c5,0.1,9,1.9,9.4,7.4c0.4,4.6-6.5,9.6-12.6,9.4c-4.8-0.2-9.1-1.8-9.5-7.5
				C448.8,286.4,455.4,281.8,461.9,281.8z"/>
			<path class="st7" d="M256.6,466.9c-5.6-1-12-1.2-13.8-8c-1-3.8,6.6-6.8,14.2-5.9c0.2,0,0.5,0.1,0.7,0.1
				c4.8,0.8,10.9,1.8,10.7,7.2C268.2,466.4,261.4,465.8,256.6,466.9z"/>
			<path class="st1" d="M137.8,283.1c6.5-0.2,13.1,4.6,13,9.4c-0.2,5.9-4.4,7.2-9.3,7.3c-6.8,0.2-12.5-3.9-12.4-9.1
				C129.2,284.8,133.7,283.9,137.8,283.1z"/>
			<path class="st5" d="M132.4,390.2c5.3,1,10.5,3.1,12.8,9.2c1.1,2.8-0.2,4.7-2.7,6c-5.7,3-10.6,0.7-15.2-2.4
				c-2.9-1.9-5.5-4.7-4.1-8.7C124.6,390.2,128.2,390.1,132.4,390.2z"/>
			<path class="st7" d="M175.7,436.9c-3.8,0.4-7.8-1.5-11.4-4.3c-1.9-1.5-3.8-3.5-2.9-6.4c0.9-2.6,3.2-3.9,5.7-4.3
				c4.6-0.7,9,0.1,13,2.5c3,1.8,6.5,3.8,5.3,8.1C184.2,436.7,180.4,436.8,175.7,436.9z"/>
			<path class="st2" d="M461.3,405.2c-3.2-0.2-6.8-1.4-6.8-6.2c0-5,8.7-10.5,15.5-10.4c4,0.1,7,1.4,7.2,5.7
				C477.4,399.4,469,405.3,461.3,405.2z"/>
			<path class="st4" d="M418.5,459.4c-3.4,0.1-7-0.5-8.3-3.8c-1.5-3.9,2.2-5.8,4.9-7.3c4.3-2.6,9.1-4.5,14.2-3.3
				c2.3,0.5,5.2,1.2,5.6,4.2c0.4,2.5-1.4,4.2-3.2,5.6C427.8,457.8,423.4,459.3,418.5,459.4z"/>
			<path class="st5" d="M144.6,257.4c4.9,0.4,10.2,2.3,10.6,8.5c0.3,5.9-4.9,7.7-9.8,8c-5.7,0.4-12-5-11.4-9.6
				C134.7,258.8,138.9,257.4,144.6,257.4z"/>
			<path class="st2" d="M373.9,463.7c-2.8-1.7-6-3.1-5.2-7.4c4.9-5.5,15.8-8.3,22.3-5.7c4.4,1.8,5.1,5.4,1.3,8.7
				C387,464,380.4,464,373.9,463.7z"/>
			<path class="st5" d="M102.3,346.5c-5.7,0.2-12.6-5.4-12.8-10.4c-0.1-5,3.2-7.1,7.6-7.3c5.5-0.3,12.5,5.6,12.9,10.5
				C110.4,343.1,106.9,346.4,102.3,346.5z"/>
			<path class="st7" d="M213.2,450.2c5.3,0,10.5,1.6,13.9,6.5c1.1,1.5,0.6,3.5-0.9,4.7c-4.6,3.7-9.9,3-14.9,1.8
				c-4.1-1-9.1-2.9-8.6-7.8C203.1,450.2,208.5,450.4,213.2,450.2z"/>
			<path class="st2" d="M105.3,319.4c-7,0.1-13.3-4.9-13.1-9.9c0.2-4.9,3.3-6.9,8-6.9c6.3,0,12.3,4.6,12.2,9.8
				C112.3,317.6,108.6,318.9,105.3,319.4z"/>
			<path class="st8" d="M426.2,331.7c-5.7-0.3-12.2,0.1-13.4-7.5c-0.7-4.5,6-8.8,13.5-9.3c1.5-0.1,3-0.2,4.5-0.3
				c1.1,0.4,2.6,0,3.3,1.4c0.1,4.9-1.3,9.5-3.2,14C429.3,330.6,427.8,331.2,426.2,331.7z"/>
			<path class="st1" d="M108,293c-5.9,0.1-11.5-4.5-11.4-9.6c0.1-5,3.5-6.9,7.9-7.3c5.7-0.5,11.8,4.3,11.8,9.2
				C116.4,290.8,112.6,292.4,108,293z"/>
			<path class="st2" d="M150.5,247.7c-5.2-0.2-10.1-1.9-10.3-8c-0.2-6,5-7.9,9.8-7.9c5.2,0,10.5,2.4,10.7,8.3
				C160.8,245.7,156,247.6,150.5,247.7z"/>
			<path class="st2" d="M140.4,431.5c-0.7-0.1-1.1-0.3-1.6-0.4c-6.2-1-11.8-3-13.6-9.8c-0.9-3.3,2-4.8,4.8-5.5
				c5.6-1.4,15.4,3.3,17,8.4C148.9,430.2,143.8,430.2,140.4,431.5z"/>
			<path class="st5" d="M495.2,317.7c-3.6-0.6-7.2-1.9-7.4-7c-0.2-5,6-11,11.6-10.7c4,0.2,7.2,2.4,7.8,6.7
				C507.8,311.5,501.4,317.5,495.2,317.7z"/>
			<path class="st9" d="M509.7,333.6c-0.1,5.1-7,11.6-12.2,11c-3.9-0.4-7.2-2.2-7.1-7c0.1-5.1,6.6-10.9,12.3-10.8
				C506.8,326.8,509.8,329.6,509.7,333.6z"/>
			<path class="st4" d="M110.9,250.1c5.2-0.2,11.3,4.6,11,9c-0.3,5.1-3.8,7.3-8.5,7.6c-5.7,0.4-11-4-10.9-8.8
				C102.6,253.8,106.4,250.3,110.9,250.1z"/>
			<path class="st5" d="M173.3,315.2c0.6,0.4,1.1,0.7,1.7,1.1c4,3.8,8.8,7.2,7.6,13.9c-0.3,0.3-0.5,0.7-0.6,1.1
				c-5.2,2-10.2,1.9-15-1c-3.1-1.8-6-4.2-5.4-8.1c0.6-3.8,3.5-5.8,7.4-6.3C170.4,315.7,171.9,315.4,173.3,315.2z"/>
			<path class="st2" d="M375.1,485.3c-0.9-0.2-3-0.3-4.8-1c-4.9-1.9-5.5-5.1-1.2-8.1c5.3-3.8,11.4-5,17.8-3.4c2,0.5,3.9,1.3,4.5,3.5
				c0.7,2.7-1.3,4.2-3.2,5.4C384.6,484,380.5,485.1,375.1,485.3z"/>
			<path class="st2" d="M200.1,223c-0.9,1-1.8,2-2.7,2.9c-4.3,1-8.5,2.8-13,0.6c-2.9-1.4-5.1-3.2-5.1-6.6c-0.1-3.5,2.3-5.3,5.2-6.6
				C192.7,209.5,200.3,214.3,200.1,223z"/>
			<path class="st2" d="M468.2,414c2.6,0.6,6.3,0.5,6.4,5.1c0.2,5-7.7,10.5-15,10.5c-3.5,0-6.7-0.4-7-4.8
				C452.3,420.1,460.9,414,468.2,414z"/>
			<path class="st2" d="M259.5,488c-8.5,0-16.3-4.1-15.1-7.5c2.5-6.6,8.7-5.1,14.1-5.1c0.2,0,0.5,0.1,0.7,0.1
				c4.5,0.8,10.2,1.7,9.8,7C268.6,487.9,262.6,487.6,259.5,488z"/>
			<path class="st2" d="M498.4,274.3c2.4,2,3.9,4.5,4.6,7.5c-1.6,3.7-3.7,7.2-7.8,8.5c-4.4,1.4-8.5,0.8-11-3.7
				c-2.4-4.5,0.2-7.6,3.4-10.3C490.9,273.7,494.7,273.9,498.4,274.3z"/>
			<path class="st1" d="M510.7,359.5c0.1,5.6-7.1,12.1-13,11.8c-3.9-0.2-6.7-2.1-6.6-6.5c0.1-4.8,7.1-10.8,12.6-11
				C507.9,353.6,510.1,355.8,510.7,359.5z"/>
			<path class="st5" d="M157,207.3c5.5,0.1,10.2,1.7,10.2,7.6c0,5.8-5.2,7.7-10,7.8c-4.6,0-9.2-1.7-9.4-7.4
				C147.5,209,152.1,207.6,157,207.3z"/>
			<path class="st2" d="M179.2,459.6c-6.2,0.2-11.4-1.7-14.6-7.3c-0.9-1.6-0.5-3.6,1.3-4.7c5.6-3.4,11.1-1.9,16.4,0.8
				c2.9,1.5,6.3,3.7,5.6,7.2C187,460,182.7,459.7,179.2,459.6z"/>
			<path class="st10" d="M413.9,481.1c-2.5-0.7-6.3-0.2-7.3-3.7c-1-3.6,2.3-5.3,4.8-6.7c4.2-2.3,8.7-4,13.6-3.2
				c2.2,0.4,4.8,0.7,5.4,3.3c0.6,2.5-1.2,4.1-3,5.6C423.6,479.5,418.9,480.3,413.9,481.1z"/>
			<path class="st11" d="M196,187.7c4.6,0.5,8.9,1.8,10.1,7c0.8,3.7-5.4,8.9-10.4,8.5c-4.6-0.4-9.7-2-9.7-7.3
				C185.9,190.3,190.9,188.5,196,187.7z"/>
			<path class="st6" d="M176.4,262.2c3.1,0.6,6.4,0.8,9.3,2.1c3.1,1.4,6.3,3.7,5.7,7.8c-0.6,4.3-3.9,6-7.8,6.6
				c-4,0.6-7.8-0.2-11.6-1.5c-0.1-0.4-0.2-0.8-0.2-1.2c0.1-4.3,0.5-8.6,3.2-12.3C175.4,263.2,175.9,262.7,176.4,262.2z"/>
			<path class="st2" d="M219.8,485.7c-5.9-0.7-10.9-1.9-14.3-6.6c-1.1-1.5-0.6-2.8,0.7-3.9c4.9-3.9,10.3-3.1,15.5-1.3
				c3.4,1.1,8.1,2.4,7.2,7.1C228.2,486,223.1,485.1,219.8,485.7z"/>
			<path class="st7" d="M119.2,241.3c-5.3-0.5-9.2-3.2-9.1-8.7c0.1-5.3,4.5-7.8,9.3-7.5c4.9,0.3,9.6,2.9,9.3,8.6
				C128.4,238.8,124.3,241,119.2,241.3z"/>
			<path class="st12" d="M142.8,454.7c-4.4-0.6-9.1-2.2-12.4-6.3c-3.3-4-1.9-7.7,3.3-8.4c5.3-0.7,9.8,1.6,13.7,4.8
				c1.8,1.5,4,3.5,2.9,6.4C149.2,454.1,146.4,454.7,142.8,454.7z"/>
			<path class="st5" d="M71,293.6c5.2,0.6,10.6,6.2,10.1,10.7c-0.5,4.3-3.3,6.8-7.6,6.8c-5,0-10.5-6.5-10-11.3
				C64,295.2,66.9,293.4,71,293.6z"/>
			<path class="st11" d="M454.5,453.1c-2.2-0.1-5.2-0.6-5.6-4.5c-0.4-4.3,9-10.4,15.5-10.4c3.2,0,6.2,0.7,6.6,4.4
				C471.4,447.1,462.1,453.2,454.5,453.1z"/>
			<path class="st13" d="M471.2,235.2c-1.4-6.7,1.3-11.3,7.2-11.9c4.6-0.5,8.7,1.1,9.9,5.9c1.6,6.4-3.1,8.7-7.9,10.6
				C476.8,239.2,473.6,238,471.2,235.2z"/>
			<path class="st11" d="M75.6,267.5c5.6,0.3,9.3,3.6,10,9.1c0.6,4.6-2.6,7.4-7.1,8c-4.5,0.6-10.1-4.5-10.1-9.1
				C68.5,270.9,70.5,267.8,75.6,267.5z"/>
			<path class="st2" d="M496.3,397.4c-3.7-0.2-6.2-1.7-6.1-5.9c0.1-4.8,7.7-11.3,13.2-11.1c3.7,0.1,6.2,1.7,6,5.9
				C509.2,391.3,501.9,397.5,496.3,397.4z"/>
			<path class="st5" d="M450.3,257.8c1.6-2.3,4.6-1.2,6.5-2.7c8.9,3.4,11.6,7.8,7.5,12.6c-2.8,3.4-6.7,5-11.1,4.7
				c-1.4-0.1-2.8-0.9-4.2-1.3C445.4,266.2,447.4,261.9,450.3,257.8z"/>
			<path class="st14" d="M385.7,390.5c-0.5-0.1-1-0.3-1.5-0.3c-5.3-0.2-10.9-0.1-12.2-6.9c-0.8-4.3,5.4-9,12.2-9.7
				c3-0.3,5.9-0.2,8.9-0.3c0.5,0.6,1,1.1,1.5,1.7c-4.5,4-5.5,10.2-9.1,14.9l0.3,0.3L385.7,390.5z"/>
			<path class="st15" d="M174.9,468.2c5.3,0.4,9.8,1.8,13.7,4.8c1.5,1.2,3.2,2.8,2.6,5c-0.6,2.1-2.7,3.1-4.6,3.5
				c-5.2,1.1-10-0.3-14.3-3.1c-2.3-1.5-4.8-3.3-3.8-6.6C169.4,468.4,172.7,468.8,174.9,468.2z"/>
			<path class="st1" d="M164.7,197.8c-4.2-0.1-8.5-1.2-8.4-6.7c0.1-5.4,4.2-7.7,9.2-7.8c4.9-0.2,9.5,1.6,9.3,7.2
				C174.4,195.6,170.2,197.8,164.7,197.8z"/>
			<path class="st5" d="M82.8,241.5c4.7,1.1,8.9,3.2,9.2,8.9c0.4,5.3-3.3,8.1-7.8,8c-4.6-0.1-8.5-2.6-8.9-8.1
				C75,245.1,78.2,242.8,82.8,241.5z"/>
			<path class="st4" d="M258.9,507.6c-5.2-0.6-12.7-1.1-12.3-6.8c0.4-5.6,7.9-5.5,13.1-4.6c4.3,0.7,10.5,1.1,10.1,6.4
				C269.5,508,263.2,507.1,258.9,507.6z"/>
			<path class="st5" d="M127.3,216.3c-4.2-0.6-8.3-1.9-8.3-7.4c0-5.7,4-7.8,8.8-8c5.1-0.3,9.3,2.3,9.1,7.6
				C136.8,213.5,132.5,215.8,127.3,216.3z"/>
			<path class="st16" d="M493.6,422c-3.4,0.2-6.1-0.8-6.2-4.7c-0.1-4.8,7.7-10.7,13.7-10.8c3.1-0.1,5.6,0.7,5.8,4.2
				C507.2,415.1,499.2,421.9,493.6,422z"/>
			<path class="st17" d="M372.6,504.8c-3.8,0.1-8.4,0.2-8.9-3.9c-0.5-3.8,3.9-5.6,7.2-6.5c4-1,8-2.6,12.4-0.8c1.9,0.8,4,1.1,4.3,3.4
				c0.3,2.3-1.7,3.5-3.3,4.5C380.8,504,376.7,505.1,372.6,504.8z"/>
			<path class="st4" d="M100.3,225.4c-0.8,4.9-3.8,7.6-8.6,7.6c-4.8,0-8.3-2.9-8.2-7.8c0.1-5.3,3.7-8.3,8.8-8
				C97.1,217.3,99.9,220.4,100.3,225.4z"/>
			<path class="st2" d="M202.7,179c-4.7-0.2-9.2-1.6-9.1-6.3c0.1-5.6,4.8-8,9.9-8c4.1-0.1,8.6,1.7,8.7,6.4
				C212.3,176.8,207.3,178.3,202.7,179z"/>
			<path class="st5" d="M527.5,291.1c3.8,0,5.5,3,6.1,6.6c0.7,4.5-5,11.4-9.2,11c-3.7-0.3-6.5-2.2-6.7-6.6
				C517.5,297.2,522.3,291.3,527.5,291.1z"/>
			<path class="st18" d="M494.2,261c-0.2,0.4-0.4,0.8-0.4,1.2c-1.3,0.6-2.6,1.4-4,1.8c-5.2,1.7-9.7,0.5-11.7-4.9
				c-1.8-5,1.8-7.8,5.7-10c1.3-0.7,2.7-1.2,4.1-1.7c0.9,0.5,1.9,1.1,2.8,1.6C493.8,252.5,496.5,256,494.2,261z"/>
			<path class="st14" d="M517.8,255.5c-5,1.7-8.9,0.4-11.1-4.5c-1.7-3.7,0.1-6.8,2.8-9.3c4-3.5,7.8-2.1,11.2,1.1
				C523.5,247.9,522.4,252.1,517.8,255.5z"/>
			<path class="st5" d="M537.7,350.1c0,5.7-5.7,11.6-10.8,11.7c-4,0.1-5.3-2.4-5.5-5.6c-0.2-5,6.1-11.4,10.8-11.5
				C536.4,344.6,537.3,347.2,537.7,350.1z"/>
			<path class="st19" d="M146.9,476.2c-5.4-0.7-10.4-3-13.2-8.7c-0.8-1.7,0.1-3,1.5-3.7c5.7-2.8,10.5-0.1,15.2,2.7
				c2.7,1.6,5.2,3.8,4.1,7.1C153.5,476.7,150.1,476.2,146.9,476.2z"/>
			<path class="st2" d="M536.4,324.2c0,5.4-4.4,10.6-9.4,10.8c-4.4,0.2-6.4-2.4-6.4-6.4c-0.1-5.2,5.7-11,10.4-10.9
				C535.3,317.9,536.4,320.6,536.4,324.2z"/>
			<path class="st4" d="M409,500.8c-2.5-0.4-5.9,0.2-6.8-3c-0.8-2.9,2.1-4.4,4.1-5.6c4.5-2.7,9.3-4.6,14.8-3.5
				c1.6,0.3,3.6,0.6,3.9,2.8c0.3,1.9-0.5,3.3-2,4.5C418.8,499.2,414.1,500.5,409,500.8z"/>
			<path class="st20" d="M449.6,475.1c-2.2-0.3-5.3-0.4-5.3-4.3c0-4.1,9.1-9.8,15.5-9.7c2.8,0,5.8,0,5.7,4.1
				C465.3,469.4,456.3,475.1,449.6,475.1z"/>
			<path class="st21" d="M173,174.7c-3.5-0.4-7.4-1.7-7.3-6.3c0.2-5.8,4.8-7.8,9.7-8.2c4.1-0.3,7.3,2,8,6.2
				C184.1,170,178.2,174.7,173,174.7z"/>
			<path class="st22" d="M522.5,282.1c-3.8,0.5-6.9-0.5-8.4-4.3c-2-5.2,1.1-8.8,4.2-12.4c4.2-0.6,8.2-0.3,9.8,4.3
				C530,275.3,526.9,279.1,522.5,282.1z"/>
			<path class="st5" d="M217.8,493.7c5.2,0,10,1,13.5,5.3c1.1,1.4,0.9,2.9-0.4,3.9c-4.5,3.5-9.6,2.5-14.4,1.3
				c-3.5-0.9-8.2-2.6-7.6-6.9C209.5,493.2,214.3,493.8,217.8,493.7z"/>
			<path class="st5" d="M96.3,438.3c-0.1-2.1,0.5-4,2-5.6c6-1.3,10.6,1.5,14.7,5.2c2,1.7,4.1,4.2,2.7,7.1c-1.6,3.3-5.1,2.6-7.9,2
				C102.7,446,99.2,442.5,96.3,438.3z"/>
			<path class="st6" d="M290.8,477.5c5-3,10-1.7,14.9-0.1c2.2,0.7,4.2,2,4.4,4.6c0.2,3-2.3,4.3-4.7,5.1c-3.3,1-6.8,1.5-10.2,2.2
				c-0.6-0.1-1.1-0.1-1.7-0.2C290.4,485.7,288.2,482.2,290.8,477.5z"/>
			<path class="st1" d="M136.6,191.8c-4.3,0-7.6-1.6-7.5-6.3c0.1-5.9,4.4-8,9.5-8.2c4-0.1,7.7,1.9,7.5,6.4
				C146,189.5,142,191.7,136.6,191.8z"/>
			<path class="st6" d="M108.7,370.6c-4.7,4.1-9.5,3.4-14.4,0.2c-6.5-4.3-7.2-9.3-1.8-15.1c0.5-0.1,1,0,1.4,0.2
				c5.8,3.3,11.7,6.7,14.7,13.1C108.6,369.5,108.6,370,108.7,370.6z"/>
			<path class="st4" d="M336.5,514.9c2,0.2,4,0.1,5.9,0.7c1.6,0.5,3.3,1.6,3.5,3.5c0.2,1.8-1.1,3.1-2.8,4
				c-5.3,2.7-10.8,3.6-16.5,1.5c-1.6-0.6-3.5-1.3-3.7-3.2c-0.3-2,1.5-3.1,2.9-4C329,515.3,332.7,514.7,336.5,514.9z"/>
			<path class="st23" d="M188.2,236.8c0.8,0.6,1.5,1.2,2.3,1.7c3,1.9,5.9,4.1,5,8.1c-0.9,4.1-4.6,5.4-8.2,6.4
				c-3.2,0.9-6.2-0.8-9.4-1c-0.5-0.6-1-1.2-1.5-1.8c1.1-2.7,2.6-5.3,4.6-7.3c3.4-3.3-0.8-3.4-1.7-4.9
				C181.9,235.4,185.1,236.8,188.2,236.8z"/>
			<path class="st5" d="M100.1,208.3c-3.5-0.1-6.5-2.2-6.4-7.1c0.1-4.9,3.3-7.7,8-8.2c4.8-0.5,8,2.7,8.1,6.8
				C109.9,204.7,106.8,208.2,100.1,208.3z"/>
			<path class="st5" d="M497.3,430.5c2.3-0.2,4.6,0.5,4.8,3.7c0.3,4.4-8.4,11.7-13.9,11.5c-2.7-0.1-4.9-1.2-4.9-4.3
				C483.1,437.3,491.4,430.7,497.3,430.5z"/>
			<path class="st12" d="M297.4,525.9c-5.1-0.1-11.6,0.1-11.6-5c0-4.8,6.7-5.1,11.1-5.2c4.4-0.1,11.2,0.1,11.2,4.9
				C308.2,526.8,301.3,525.4,297.4,525.9z"/>
			<path class="st11" d="M368,523.5c-2.7-1-7.1,0.3-7.7-3.9c-0.5-3.4,3.5-4.2,6-5.7c0.2-0.1,0.5-0.2,0.7-0.3
				c5.1-1.2,10.2-2.7,15.1,0.3c1.1,0.7,1.4,2.1,0.6,3.3C379.1,522.2,373.6,522.6,368,523.5z"/>
			<path class="st5" d="M179.8,489.4c5.3,0.3,9.5,1.6,13,4.7c1.3,1.2,2.6,2.5,2,4.4c-0.6,1.9-2.4,2.4-4.1,2.7
				c-4.7,1-8.8-0.5-12.8-2.6c-2.4-1.3-5.3-2.8-4.7-6C174,488.8,177.8,490,179.8,489.4z"/>
			<path class="st13" d="M98.2,399.1c-2.2-1.9-4.6-3.7-6.5-5.9c-2-2.3-3.3-5.1-1.3-8.1c2-2.9,5.1-3.1,8-2.2c3,1,5.7,2.9,8.5,4.4
				c0.6,1,1.2,1.9,1.8,2.9c-1.9,3.9-5.3,6.3-8.8,8.6C99.3,398.9,98.7,399,98.2,399.1z"/>
			<path class="st19" d="M147.6,169c-3.9-0.5-7.6-1.5-7.2-6c0.5-5.6,4.8-8.1,9.8-8.2c3.7-0.1,7,1.8,6.6,6.3
				C156.2,166.5,152.1,168.2,147.6,169z"/>
			<path class="st4" d="M259.5,515c4.3,0.7,11.7,0.4,11.1,6.4c-0.6,5.6-7.9,4.6-12.7,4c-3.8-0.5-9.4-1.4-8.9-6.1
				C249.5,514.6,255,515.1,259.5,515z"/>
			<path class="st4" d="M536.3,376.3c0.1,5.1-5.8,11.8-10.6,12.1c-3.5,0.2-5-2-5.3-5c-0.4-4.5,6.3-11.5,10.9-11.9
				C534.9,371.2,536.5,372.9,536.3,376.3z"/>
			<path class="st21" d="M453,482.3c3.1-0.2,5.1,0.3,6,2.3c0.8,1.9-0.9,3.3-1.9,4.5c-3.7,4.2-8.6,5.7-13.9,6.1
				c-1.8,0.1-3.7-0.2-4.5-2c-0.9-1.8,0.2-3.4,1.5-4.7C443.8,484.7,448.8,483.2,453,482.3z"/>
			<path class="st2" d="M59.2,266.6c-0.4,4.8-2.1,8.1-6.8,7.7c-5.4-0.5-7.4-4.8-7.5-9.5c0-3.9,1.9-7.7,6.7-7.1
				C56.8,258.3,58.7,262.3,59.2,266.6z"/>
			<path class="st1" d="M220.7,512.7c5.5,0.5,10.5,1.1,13.8,5.6c0.9,1.2,0.4,2.4-0.7,3.2c-4.6,3.2-9.7,2.1-14.4,0.6
				c-2.9-0.9-7.3-2.2-6.5-6C213.7,512.3,218.1,513.1,220.7,512.7z"/>
			<path class="st24" d="M378.5,441.1c-3-2.1-8.7-1.6-7.9-7.2c0.7-4.9,5.4-6.4,9.3-7.4c3.7-0.9,7.8-0.5,11.8-0.7l0.2,0.4l-0.3,0.3
				c2,3.8-1.6,4.8-3.4,6.8c-1.7,2-5.5,2.9-3.8,6.8C382.7,442,380.4,440.8,378.5,441.1z"/>
			<path class="st2" d="M52.3,240.3c0.5-4.3,2.1-8.2,7-8c5.1,0.3,7.2,4.3,7.1,8.9c-0.1,4.3-2.6,7.9-7.4,7.5
				C54.3,248.3,52.5,244.7,52.3,240.3z"/>
			<path class="st4" d="M75.6,216.1c-0.3,4.7-3.3,7.7-8,7.6c-4.3-0.1-6.6-3.6-6.1-7.7c0.5-4.4,2.7-8.3,8-8
				C74,208.2,75.5,211.6,75.6,216.1z"/>
			<path class="st25" d="M240.6,145.1c3.3,1.5,7,3.7,5.8,7.5c-1.8,6.1-7.3,6.6-12.9,6c-2.4-1.8-5.4-3.5-4-7.2
				C231.4,146.5,236.1,145.9,240.6,145.1z"/>
			<path class="st5" d="M209.6,156.2c-3.4-0.5-7.5-1-7.5-5.5c0-5.7,4.5-7.4,9.2-7.8c3.7-0.3,7.5,1,7.6,5.3
				C219,153.8,214.4,155.3,209.6,156.2z"/>
			<path class="st21" d="M115.6,469.7c-4.9-1.1-9.1-3.4-12.2-7.7c-1.1-1.5-1.6-3.2-0.6-4.9c1-1.6,2.6-2.2,4.5-1.7
				c4.7,1.2,8.9,3.1,12.1,6.8c1.4,1.6,2.3,3.3,1.4,5.4C120,469.9,117.8,469.7,115.6,469.7z"/>
			<path class="st12" d="M154.3,496.8c-4.4-0.9-8.8-2.3-12.4-5.7c-1.5-1.4-2.9-3-1.8-5.2c1-2,3.2-2.5,5.2-2.2
				c4.4,0.8,8.8,1.8,12.2,5c1.5,1.5,3.7,3.1,2.3,5.6C158.8,496.4,156.7,496.7,154.3,496.8z"/>
			<path class="st11" d="M412.8,508.2c1.9,0.2,4.8-0.5,5.8,1.9c1.2,3-1.7,4.4-3.7,5.6c-4.1,2.5-8.6,3.9-13.5,3.5
				c-1.9-0.1-3.5-0.8-4.2-2.6c-0.8-2.1,0.9-3.3,2.2-4.3C403.1,509.5,407.7,508.4,412.8,508.2z"/>
			<path class="st13" d="M414.2,302.8c-5.5-4.6-5.7-7.4-0.4-11.4c5.7-4.2,12-3.9,18.4-2c0.1,0.4,0.2,0.8,0.2,1.3
				C427.7,296.8,421.8,301.1,414.2,302.8z"/>
			<path class="st5" d="M114.7,170.2c3.7,0.4,6.4,2.2,6.1,6.6c-0.5,5.4-4.3,7.8-9.2,8c-4,0.2-7.1-2.3-6.5-6.5
				C105.9,173.5,109,170.3,114.7,170.2z"/>
			<path class="st11" d="M183.5,152.2c-3.5-0.4-7-1.1-7-5.2c0-5.5,4-7.5,8.9-8.1c4-0.5,7.5,1,7.4,5.3
				C192.6,149.5,188,151.1,183.5,152.2z"/>
			<path class="st4" d="M521.9,413.2c-2.7,0.2-4.2-0.9-4.3-3.8c-0.2-4.5,6.6-11.9,11.5-12.3c2.9-0.3,4,1.1,4.1,3.9
				C533.3,405.9,526.8,413,521.9,413.2z"/>
			<path class="st25" d="M330.2,542.2c-1.7-0.4-3.4-0.8-5-1.2c-1.7-0.4-3.6-1.2-3.9-3c-0.4-2.5,2-3.4,3.7-4c3.9-1.4,8-2.9,12.3-1.6
				c2.3,0.7,5.7,0.5,5.7,3.7c0,2.6-3,3.7-5.3,4.4C335.2,541.2,332.7,541.6,330.2,542.2z"/>
			<path class="st12" d="M549.4,263.3c-0.2,4.6-2,8.7-6.4,9c-4.5,0.3-6.1-3.8-6.2-7.8c0-4.3,2-8.4,6.4-8.8
				C548.1,255.3,548.9,259.6,549.4,263.3z"/>
			<path class="st12" d="M98.3,408.4c0.5,0,1-0.1,1.4-0.3c3.7,1.5,7.4,2.8,10,6.2c1.6,2.2,3.8,4.3,2.1,7.3c-1.6,2.7-4.4,2.9-7.3,2.3
				c-1.5-0.3-2.9-0.5-4.4-0.7c-0.6-0.5-1.1-1.1-1.7-1.6C95.4,417.1,95,412.8,98.3,408.4z"/>
			<path class="st18" d="M554.9,288.5c-0.8,4.4-1.7,9.2-7.1,9.9c-4,0.5-5.4-3.1-5.4-6.5c-0.1-5.2,1.8-9.9,7.3-10.5
				C553.4,280.9,554.4,285,554.9,288.5z"/>
			<path class="st4" d="M481.7,467.6c-1.7-0.1-4.2,0-4.5-3.1c-0.3-3.9,9.3-11.1,14.6-11.1c2.1,0,4,0.5,4.1,3.2
				C496.1,460.6,487.8,467.3,481.7,467.6z"/>
			<path class="st19" d="M557.9,314c-0.4,5.5-2,10.4-7.4,11.2c-3.9,0.6-5-3.4-5.1-6.8c-0.1-4.8,5.1-11.4,8.4-10.9
				C557.9,308.1,557.3,311.6,557.9,314z"/>
			<path class="st5" d="M293.8,496.6c1.5,0.1,3,0.3,4.5,0.4c3.4,2.6,7.8,4.5,5.8,10.2c-4.4,1.5-8.8,1.6-13.3,0.2
				c-2.7-0.8-5.7-1.9-5.8-5c-0.1-2.9,2.9-3.7,5.2-4.6C291.4,497.4,292.6,497,293.8,496.6z"/>
			<path class="st18" d="M263.3,542c-4.2-0.4-8.4-0.8-11.3-4.4c-0.4-0.5-0.3-2.2,0.1-2.7c3.5-3.1,7.7-3.1,11.9-2.1
				c3.5,0.8,8.8,0.9,8.2,5.5C271.8,541.8,266.8,541.7,263.3,542z"/>
			<path d="M271.2,30.5c-1-1.1-1.3-2.6,0.3-2.7c6.7-0.3,13.4-0.3,20-0.2c2.4,0.1,3.9,3.4,2.1,3.8c-8.1,1.6-3.4,7.6-4.6,11.5
				c-1.4,0.8-2.6,2.6-4.4,0.8c0-3.6,0-7.3,0-11.4C280.2,33.5,275.2,35,271.2,30.5z"/>
			<path class="st20" d="M185,508.7c2,0.4,3.5,0.4,4.9,0.9c4,1.5,9.4,2.2,9.7,7.6c0.2,2.7-3.7,2.7-6.1,2.6c-5.9-0.2-12.2-1-14.1-7.2
				C177.9,508,183.2,509.8,185,508.7z"/>
			<path class="st11" d="M86.3,192c-0.7,4.3-3.2,7.6-8.2,7.6c-3.7,0-5.8-2.8-5.5-6.7c0.4-4.8,3-8.3,7.9-8.5
				C84.6,184.3,86.6,187.3,86.3,192z"/>
			<path class="st13" d="M54.5,295.3c-2.4,2.3-3.3,7.3-8.4,5c-4.7-2.1-6.6-5.9-6.4-10.8c0.2-4.5,3-6.6,7.4-6.6
				c0.6,0.6,1.2,1.1,1.7,1.7c0.5,3.1,2.3,5.5,4.6,7.4C54.7,292.8,54.4,294.1,54.5,295.3z"/>
			<path class="st5" d="M124,162.2c-3.4-0.3-6.4-2-6-5.3c0.6-5.2,4.4-8.3,9.5-8.8c3.2-0.3,6,1.7,5.8,5.3
				C133,159.1,128.9,161.3,124,162.2z"/>
			<path class="st11" d="M158.6,147.1c-3.1-0.4-6.2-2-5.7-5.4c0.8-5.4,5.2-7.8,10.4-7.9c2.8-0.1,5.4,1.4,5.6,4.8
				C168.9,142.3,163,147.2,158.6,147.1z"/>
			<path class="st26" d="M74.1,337.7c-2.2,0-4.3-0.2-6-1.7c-4.8-3.2-3.7-8.2-3.6-12.7c0.1-3.7,2.8-3.3,5.3-2.6
				C79.3,326.4,80.5,331.2,74.1,337.7z"/>
			<path class="st18" d="M297,542.3c-4.4-0.1-10.3,0-10.4-4.2c-0.1-5.2,6-4.8,10-4.9c4.1-0.1,10.4-0.3,10.3,4.6
				C307,542.7,300.7,541.9,297,542.3z"/>
			<path class="st7" d="M558.9,341.1c-0.8,4.5-2.2,9.5-8,10.6c-3.3,0.6-4.4-2.5-4.3-5.6c0.1-5,5.2-12,8.6-11.7
				C559.2,334.7,558.8,337.8,558.9,341.1z"/>
			<path class="st4" d="M89.4,176.4c-2.6-0.2-4.4-2.6-4.1-5.9c0.5-5,3.5-8.4,8.6-8.7c3.6-0.3,5.2,2.4,5.1,5.9
				C98.8,172.2,94.5,176.6,89.4,176.4z"/>
			<path class="st21" d="M159.5,515c-3.1-0.1-6.9-2.4-10.4-5.3c-1.3-1.1-2.7-2.7-1.7-4.5c0.8-1.6,2.7-2.4,4.5-2
				c4.3,1,8.7,1.9,12.1,5.2c1.4,1.3,3.6,2.5,2.4,4.8C165.4,515.4,163.1,515.1,159.5,515z"/>
			<path class="st18" d="M516.3,436.8c-3.8,0.1-4-2.4-3.1-5c1.8-5.4,5.9-8.6,11.2-10c2.7-0.7,4.2,0.8,3.9,3.8
				C527.7,429.9,520.5,436.7,516.3,436.8z"/>
			<path class="st11" d="M113.9,477.2c4.4,0.5,7.9,2.2,10.8,5c1.7,1.6,4.6,3.3,3.3,6c-1.5,3.1-4.8,2.1-7.3,1.3
				c-3.8-1.2-7.1-3.3-9.7-6.5c-0.9-1.2-1.8-2.5-1.3-4C110.5,476.8,112.5,477.4,113.9,477.2z"/>
			<path class="st18" d="M361.9,539.4c-1.3,0-4.8-0.1-5.3-3c-0.5-3,2.9-4.1,5.5-5c3.5-1.2,7.1-2,10.9-1.6c2,0.2,4.3,0.5,4.6,2.7
				c0.4,2.3-1.8,3.5-3.5,4.2C370.7,538.4,367.1,539.5,361.9,539.4z"/>
			<path class="st5" d="M414.2,302.8c6.1-4,12.1-8.1,18.2-12.1c4.8,6.3,3.8,8.4-6.2,13.8C422.1,304.6,417.9,306,414.2,302.8z"/>
			<path class="st18" d="M193.7,130.6c-2.9-0.1-6.1-0.9-5.8-4.8c0.5-5,4.6-6.9,8.9-7.7c3.4-0.6,5.9,1.3,6.2,4.8
				C203.4,126.1,198,130.4,193.7,130.6z"/>
			<path class="st27" d="M459.3,238.2c0.1,0.5,0.2,1,0.3,1.5c-2.5,5.2-7.3,6.6-12.4,7.4c-4-3-11-4.1-7.4-11.8
				C446.6,234.5,453.1,235.5,459.3,238.2z"/>
			<path class="st4" d="M225.5,530.1c1.6,0.4,4,0.8,6.4,1.4c2.9,0.8,6.6,2,6,5.3c-0.7,3.2-4.7,3.1-7.7,2.9c-2.4-0.2-4.9-0.9-7.1-1.8
				c-2.4-0.9-6.1-1.7-5.3-4.9C218.3,530.4,221.8,530,225.5,530.1z"/>
			<path class="st18" d="M436.5,513.6c-1.9-0.2-4.5,0.7-5.2-1.8c-0.6-2,1.3-3.6,2.9-4.8c3-2.3,6.3-3.9,10.1-4.4
				c2.5-0.4,5.6-1.1,6.6,1.6c0.9,2.2-1.6,4.1-3.4,5.3C444.1,511.5,440.7,513.7,436.5,513.6z"/>
			<path class="st5" d="M219.9,122c3.7-0.1,7.1,1.2,6.7,5.1c-0.5,4.9-4.7,6.8-9.2,7.1c-3.3,0.2-6.6-1.4-6.3-4.8
				C211.5,124.7,215.1,122.2,219.9,122z"/>
			<path class="st27" d="M396.3,535.9c-2.1,0.1-4.4,0.1-5.3-2c-1-2.4,1.5-3.5,3-4.5c3.5-2.4,7.7-3.4,11.9-3.9c2-0.2,4.4,0,5.3,2
				c1,2.3-1.3,3.5-2.9,4.6C404.6,534.4,400.6,535.7,396.3,535.9z"/>
			<path class="st28" d="M21.7,274.9c1.7-1.1,2.6-4.4,5.4-2.5c3.7,2.4,4.9,6.1,4.8,10.4c-0.1,2.7-1,5.4-3.5,6.1
				c-4.2,1.1-4.8-3.4-6.9-5.6C21.5,280.5,21.6,277.7,21.7,274.9z"/>
			<path class="st4" d="M483.8,475.3c1.8-0.1,3.6-0.3,4.1,1.5c0.3,1-0.4,2.3-0.7,3.4c-0.1,0.4-0.6,0.8-0.9,1.2
				c-4,3.9-8.2,7.3-14.3,6.5c-1.8-0.2-2.5-1.9-1.6-3.4C473.4,479.2,478.1,476.3,483.8,475.3z"/>
			<path class="st11" d="M557.8,365.8c-0.8,5.8-2.8,10.8-8.6,12.2c-3.4,0.9-4.2-2.5-3.7-5c1.2-5.2,3.2-10.3,9.1-11.6
				C557.8,360.8,557.6,363.9,557.8,365.8z"/>
			<path class="st18" d="M44.6,207.3c0.6-4.2,1.6-8.8,6.5-9.6c3.4-0.5,4.9,2.8,4.9,6c0,4.6-2.1,8.7-6.5,9.7
				C45.8,214.2,45.2,210.3,44.6,207.3z"/>
			<path class="st11" d="M141.6,127.6c3,0.1,5.2,1.1,5.7,4.1c0.5,3.5-5.4,8.9-9.6,8.9c-3.2,0.1-5.7-1.3-5.2-4.7
				C133.3,130.9,137.1,128.5,141.6,127.6z"/>
			<path class="st12" d="M45.8,229.4c-0.4,4.1-1.7,8.2-5.9,8.4c-4.4,0.2-5.1-4.1-4.8-7.7c0.2-3.8,1.1-8.2,5.7-8.3
				C45.4,221.7,45.4,226.1,45.8,229.4z"/>
			<path class="st18" d="M104.7,154.1c-3.6,0-5.2-1.5-5.1-4.6c0.1-4.3,5.4-9.4,9.5-8.9c2.9,0.4,4.7,2.1,4.2,5.1
				C112.2,150.6,109.2,153.6,104.7,154.1z"/>
			<path class="st29" d="M18.5,300.1c4.7-4.1,6.6-0.2,8.1,3.2c1.9,4.1,3.2,8.7-1,12.1c-2.3,1.9-4-0.9-5.2-2.6
				c-2.4-3.4-2.2-7.5-2.3-11.4C18.4,301,18.6,300.6,18.5,300.1z"/>
			<path class="st30" d="M325.6,505.4c-2.1-2.8-1.7-5.3,1.4-6.8c5.2-2.4,10.6-4.6,16.4-1.6c-0.5,6.4-7.6,6.3-10.5,10.3
				C330.1,508.4,328,506.2,325.6,505.4z"/>
			<path class="st31" d="M35,262.6c-4.1,0.8-5.7-2.2-7.6-4.9c0-0.2,0-0.5,0-0.7c0-3.6-0.7-7.6,3.2-9.9c2-1.2,3.9-0.4,5.1,1.4
				c2.4,3.7,3.5,7.6,0.9,11.7C36.1,261,35.5,261.8,35,262.6z"/>
			<path class="st11" d="M191,526.8c5.7,0.1,10.4,1.4,13.7,5.7c0.8,1.1,0.5,2.6-0.9,3.1c-5,1.6-9.8,0.7-14.2-2.1
				c-1.8-1.1-4.5-2.2-3.8-4.8C186.5,525.8,189.6,527.5,191,526.8z"/>
			<path class="st32" d="M521.2,446.8c-0.1,4.8-8.6,12.7-12.6,12.5c-2.9-0.1-3.5-2-2.6-4.1c2.4-5.2,6.5-8.8,12-10.5
				C520.5,444.1,521.1,445.8,521.2,446.8z"/>
			<path class="st33" d="M172,126.1c-3.6-0.4-5.8-1.6-5.2-4.8c1.1-5.2,5.1-7.3,9.9-7.6c2.6-0.2,5,1.2,4.4,4.6
				C180.1,123.7,175.6,124.9,172,126.1z"/>
			<path class="st34" d="M17.3,325.6c5.2-2.3,6.5,2.3,7.9,5.2c1.6,3.1,3.8,7,0.8,10.3c-3.8,4.2-5-1.3-7.4-2.5
				C17.1,334.3,16.3,330,17.3,325.6z"/>
			<path class="st4" d="M385.6,389.9c1.5-5.9,1.2-12.9,9.1-14.9c5.9,4.9,5.9,8-0.1,11.8C391.8,388.6,388.9,390.1,385.6,389.9z"/>
			<path class="st21" d="M256.9,109.4c-0.6,4.1-3.1,6.4-7.3,6.8c-3.6,0.4-6.9-1-6.7-4.9c0.1-4.3,4-6.1,7.7-6.7
				C253.8,104.1,256.3,105.6,256.9,109.4z"/>
			<path class="st35" d="M63.3,174.7c3.6,0.2,4.7,2.3,4.5,5.1c-0.3,4.8-2,9-7.3,9.8c-2.9,0.5-4.5-2.2-4.2-4.9
				C56.8,180,58.5,176,63.3,174.7z"/>
			<path class="st36" d="M296.1,548.3c3.8,0.5,9.5,0.1,9.6,3.8c0.2,5.1-5.7,4.2-9.4,4.4c-3.6,0.2-9.1,0-9.1-3.9
				C287.2,548.6,292.8,549,296.1,548.3z"/>
			<path class="st37" d="M557.3,229.1c-0.6,3.1-0.5,7.4-4.8,7.1c-3.7-0.2-4.6-4.3-5.1-7.4c-0.7-4.1-0.3-8.1,5.2-8.7
				C555.3,222.5,557.1,225.4,557.3,229.1z"/>
			<path class="st12" d="M235.1,106.6c-1.3,4.5-4.4,6.8-8.7,7.3c-3,0.3-6.1-1.1-5.7-4.4c0.6-4.3,3.8-6.8,8.4-7.1
				C232.3,102.3,234.4,103.5,235.1,106.6z"/>
			<path class="st25" d="M169.6,531.8c-4.6-0.2-8.3-2.2-11.7-4.7c-1.3-1-2.8-2.3-1.7-4.3c0.8-1.5,2.4-1.8,3.9-1.5
				c4.1,1,8.2,2,11.5,4.8c1.2,1.1,3.2,2.1,2.4,4.1C173.2,532.4,171,531.6,169.6,531.8z"/>
			<path class="st38" d="M566.2,288c-6.3-3-3.7-9-4.7-13.7c1.6-1.7,2.9-4.7,5.8-3.6c2.6,1,2.7,4.1,2.8,6.6
				C570.3,281.3,570,285.4,566.2,288z"/>
			<path class="st13" d="M558.8,262.2c-3.3-3.7-4.1-8-2.9-12.6c0.7-2.6,2-5.4,5.8-4.3C566.9,254,566.1,258.6,558.8,262.2z"/>
			<path class="st33" d="M136.1,507.1c-0.2,0.4-0.5,1.3-1,1.5c-3.4,1.3-6.4-0.5-9.2-1.9c-3-1.6-6.2-3.3-7.1-7.2
				c-0.2-1.1,0.3-2.2,1.2-2.4c4.2-0.6,7.8,1.3,11.1,3.5C133.3,502.2,135.9,503.6,136.1,507.1z"/>
			<path class="st26" d="M359,554.2c-3-0.1-6.1,0-6.6-2.9c-0.4-2.6,2.8-3,4.5-4.3c0.2-0.1,0.5-0.2,0.7-0.2c4.6-0.8,9.2-2.8,13.7,0.1
				c0.4,0.3,0.7,1.5,0.4,1.8C368.3,553,363.2,553.2,359,554.2z"/>
			<path class="st12" d="M128.9,125c-1.8,4.4-4.3,8.1-10.1,8.1c-2.8,0-4.6-1.6-3.7-4.2c1.5-4.5,4.6-7.6,9.6-8.1
				C127.5,120.5,129,121.8,128.9,125z"/>
			<path class="st26" d="M162.3,111.8c-1.8,5.4-5.6,8.1-10.6,8.6c-2.4,0.3-4.5-1.5-3.7-4.3c1.5-5.1,5.4-7.5,10.6-7.6
				C161,108.4,162,109.9,162.3,111.8z"/>
			<path class="st18" d="M73.8,167.1c-2.6-0.5-4.2-1.7-4.2-4.5c0-3.7,5.5-10.5,8.6-10.1c2.7,0.3,3.6,2.3,3.4,4.9
				C81.3,162.5,78.2,165.3,73.8,167.1z"/>
			<path class="st18" d="M554.4,390.5c-0.1,0.5-0.1,1-0.2,1.5c-1.4,5-3.8,9.3-8.9,11.2c-1.7,0.6-2.7-0.7-3.1-2.3
				c-0.9-3.6,4.2-11.8,8.2-13.4C553.4,386.3,554.5,387.6,554.4,390.5z"/>
			<path class="st21" d="M83,469.9c0.5-0.5,1.1-1,1.6-1.4c5.1,0.9,9.3,3.4,12.5,7.3c1.3,1.6,3.7,3.5,1.9,5.6c-1.5,1.8-4.4,1-6.2-0.2
				C88.4,478.5,83.8,475.8,83,469.9z"/>
			<path class="st12" d="M330.5,547.7c2.5,0.3,4.3,0.4,6,0.7c1.2,0.2,2.3,0.9,2.5,2.3c0.2,1.5-0.8,2.4-1.9,2.9
				c-4.2,1.8-8.5,2.9-13,1.9c-1.9-0.4-4.3-0.7-4.4-3.1c-0.1-1.9,2-2.8,3.6-3.2C325.9,548.5,328.6,548.1,330.5,547.7z"/>
			<path class="st32" d="M262.9,547.9c4.5,0.4,10.9,0.3,10.5,4.8c-0.3,4.1-6.8,3.5-10.8,2.8c-3.1-0.6-8.3-0.4-7.7-4.9
				C255.3,547.1,260.2,548.4,262.9,547.9z"/>
			<path class="st39" d="M384.4,440.1c-1.1-0.9-5.8,0.8-2.2-3.5c3-3.5,7.8-5.3,9.4-10.2c3,0.4,5.3,2.1,5.5,4.9
				c0.2,3.1-2.5,5.3-5.1,6.5C389.7,439.1,386.9,439.4,384.4,440.1z"/>
			<path class="st21" d="M426.9,530.9c-1.5-0.1-3.3-0.2-3.6-1.8c-0.2-0.9,0.9-2.1,1.5-3.1c0.1-0.2,0.3-0.4,0.5-0.5
				c4.4-3.2,9.2-5.6,14.9-4.9c0.9,0.1,2.2,0.7,1.4,2.5C440.3,525.9,431.3,530.9,426.9,530.9z"/>
			<path class="st11" d="M229.5,545.8c4.6,0.7,8.9,0.8,11.9,4.6c0.7,0.9,0.7,1.8-0.4,2.4c-4.1,2.5-8.1,1.5-12.2,0
				c-2.6-0.9-6.1-1.8-5.4-4.9C223.9,545.1,227.6,546.4,229.5,545.8z"/>
			<path class="st40" d="M478.6,497.9c-0.7,3.7-11.7,10.5-15.2,9.3c-1.6-0.5-2.7-1.6-1.5-3.3c3.4-5,8.2-8,14.2-8.6
				C477.8,495.1,479.2,495.7,478.6,497.9z"/>
			<path class="st26" d="M573.9,303.6c-0.7,4.3-0.6,9.4-5.3,10.1c-4,0.6-3.8-4.1-3.6-6.7c0.3-3.9,0.7-9.1,5.2-9.8
				C574.2,296.5,573.2,301.2,573.9,303.6z"/>
			<path class="st41" d="M206.5,551.1c-4.8-0.5-9.7-1.6-13.2-5.7c-0.6-0.8-0.4-2.1,0.7-2.5c5.2-1.8,9.8,0.3,14.2,2.6
				c1.5,0.8,3.6,1.7,3,3.8C210.7,551.3,208.5,551,206.5,551.1z"/>
			<path class="st5" d="M205.9,110.4c-3.6,0.1-6.1-0.5-5.7-3.5c0.6-4.8,4.1-7.1,8.7-7.5c2.6-0.2,5.6,0.4,4.9,3.8
				C212.9,107.8,209.5,110.3,205.9,110.4z"/>
			<path class="st18" d="M388.3,550.5c-1.4-0.2-3.6,0.3-4.1-1.9c-0.3-1.7,1.5-2.5,2.7-3.3c3.2-2.1,6.7-3.4,10.5-3.3
				c2,0,5-1.2,5.7,1.6c0.5,2.2-2.2,3.1-3.9,4C396,549.4,392.3,550.2,388.3,550.5z"/>
			<path class="st26" d="M538.7,427.4c-1.7-0.4-2.6-1.6-2.2-3.2c1.4-5.5,4.8-9.7,9.8-12.4c1.7-0.9,3,0.6,2.8,2.2
				c-0.8,5.8-4.2,9.8-9,12.8C539.6,427.1,539.1,427.2,538.7,427.4z"/>
			<path class="st12" d="M195.1,98.7c-1.6,4.1-4.5,6.9-9.2,7.4c-2.4,0.3-5.3-0.2-4.7-3.1c1.1-4.8,4.9-7.3,9.8-7.9
				C193.4,94.9,194.7,96.3,195.1,98.7z"/>
			<path class="st42" d="M500.2,480.3c-2.4-0.1-3.7-1-2.7-3.3c0.6-1.3,1.5-2.6,2.5-3.7c3.2-3.1,6.3-6.7,11.3-6.2
				c1.5,0.1,1.3,2,0.7,3C509.6,475.3,505.5,478.7,500.2,480.3z"/>
			<path class="st36" d="M573,322.8c2.5,6.1,1.8,11.2-1.3,16.1c-0.8,1.2-2,2.6-3.6,1.7c-0.9-0.5-1.7-2-1.8-3
				C566,331.9,567.1,326.8,573,322.8z"/>
			<path class="st43" d="M297.3,561.9c3,0.9,8.3,0.6,7.7,3.3c-0.9,4.2-6.1,4-10,3.8c-2.9-0.2-7.8-0.9-7.1-3.6
				C288.8,561.3,294,562.6,297.3,561.9z"/>
			<path class="st4" d="M96.9,136.5c-0.7,4.3-3.3,7.6-8.1,8.8c-2.4,0.6-3.8-0.9-4-3.1c-0.4-3.2,5.5-9.6,8.8-9.9
				C96.4,132,96.8,133.8,96.9,136.5z"/>
			<path class="st25" d="M257.6,86.4c2.9,0.2,5.1,1.3,4.6,4.5c-0.6,4-3.6,5.8-7.4,6.1c-2.9,0.2-5.1-1.3-4.6-4.4
				C250.9,88.6,253.9,86.9,257.6,86.4z"/>
			<path class="st42" d="M92.5,489.4c7.5,0.1,11.8,3.6,15.5,8.1c0.7,0.8,0.9,2.5,0.5,3.4c-0.6,1.3-2.2,0.9-3.3,0.4
				C99.9,499,95.1,496.1,92.5,489.4z"/>
			<path class="st44" d="M146.3,525.2c-7.1,1.7-11.4-1.5-15.6-5.1c-1.1-0.9-2.6-2-1.8-3.7c0.8-1.6,2.6-1.4,3.9-1
				C138,517.1,142.9,519.3,146.3,525.2z"/>
			<path class="st25" d="M540.4,242.7c0,0.8-0.1,1.6-0.1,2.5c-2.9,1.9-5.7,3-8.4-0.3c-3.3-4.1-3.7-8.3-0.3-12.6
				C537.7,233.1,538.6,238.3,540.4,242.7z"/>
			<path class="st39" d="M179.3,238c2.2,0,4.4,0,8.1,0c-4.9,4.1-5.5,10.1-10.9,12.2C171.4,244,171.9,242,179.3,238z"/>
			<path class="st4" d="M252,128.3c-0.1,0.5-0.3,1-0.4,1.5c-4.7,2.1-8.6,7.2-14.8,4.4c-3.1-4.2,0.3-6.6,3-8.2
				C244.2,123.3,248.7,123.7,252,128.3z"/>
			<path class="st21" d="M393.1,414.2c-1,0-2,0-3,0c-2.8-4.3-4.3-8.7-1.5-13.6c1-0.1,2-0.2,3-0.3
				C400.6,404.7,400.8,406.9,393.1,414.2z"/>
			<path class="st45" d="M365.9,561.1c-4.5,4.7-9.5,5.5-14.8,5.3c-1.5,0-3.3-0.3-3.6-2c-0.2-1.3,1.1-2.2,2.3-2.6
				C354.8,560.1,359.8,556.9,365.9,561.1z"/>
			<path class="st40" d="M333,507.4c-1.7-2-0.4-2.7,1.3-3.7c3.3-1.9,7-3.2,9.2-6.7c1,0,2,0,3,0c3.7,3,3.1,5.5-0.8,7.8
				C341.7,507.2,337.4,507.7,333,507.4z"/>
			<path class="st46" d="M27.1,380.3c2.2,4.4,4.9,8.6,4.5,13.8c-5.5-1.3-11.5-9-10.1-13.9C22.9,375,25.2,379.7,27.1,380.3z"/>
			<path class="st46" d="M182.3,545.9c-0.7,0.2-1.3,0.7-1.9,0.7c-6.1,0.3-11.2-1.8-14.9-6.8c-0.7-0.9,0.4-1.7,1.5-2
				C170.7,536.4,179.2,540.8,182.3,545.9z"/>
			<path class="st25" d="M324.7,568.4c-1.8-0.3-3.5-0.5-5.2-1c-0.8-0.3-1.9-1.1-2.1-1.8c-0.1-0.6,0.8-1.8,1.5-2.1
				c1.6-0.8,3.2-1.4,4.9-1.6c3.7-0.5,7.5-1.4,10.8,1.2c0.4,0.3,0.5,1.4,0.2,1.8C332.3,568.3,328.1,567.2,324.7,568.4z"/>
			<path class="st47" d="M573.7,355.1c-0.7,4.3-2.2,8.7-5.8,11.9c-0.8,0.7-2,0.1-2.3-0.9c-1.7-5,0.7-9.1,3-13.2
				c0.8-1.4,1.8-3.4,3.9-2.3C574,351.5,573.7,353.2,573.7,355.1z"/>
			<path class="st48" d="M237.7,84.7c4-0.2,6.1,0.7,5.6,3.6c-0.7,4.3-4.2,6-8,6.6c-2.3,0.3-4.9-1.1-4.2-3.8
				C232,87.3,235,85,237.7,84.7z"/>
			<path class="st49" d="M60.8,459.5c6.1-0.4,8.9,4.4,12.4,8.1c1.1,1.2,3.2,3.1,1.3,5c-1.5,1.4-3.2-0.1-4.6-1
				c-1.1-0.6-2.1-1.2-3.2-1.8C64.7,466.3,61.1,463.8,60.8,459.5z"/>
			<path class="st50" d="M541.3,437c0.1,4.1-6.9,12.5-10,13c-2.2,0.4-2.8-0.9-2.2-2.5c1.6-5.2,5.1-9,9.7-11.8
				C540.8,434.4,541,436.2,541.3,437z"/>
			<path class="st22" d="M417.3,545.9c-1,0-2.3,0.1-2.9-1.2c-0.7-1.4,0.6-2.3,1.5-3c3.5-3,7.8-4.1,12.1-5.2c1.1-0.3,2.6-0.3,3.2,1.1
				c0.6,1.4-0.3,2.3-1.4,3.1C426.1,543.2,422.1,545.2,417.3,545.9z"/>
			<path class="st11" d="M174.4,90.7c2.3,0,4.2,0.4,3.6,2.8c-1.2,5-5.3,6.9-9.7,7.8c-2.1,0.5-4.5-0.7-3.6-3.2
				C166.2,93.5,170.2,91.4,174.4,90.7z"/>
			<path class="st25" d="M276.1,565.4c-5.4,4.6-10.7,2.9-16.1,1.1c-1.2-0.4-2.5-1.4-2.1-2.6c0.3-0.9,1.8-1.7,2.8-1.9
				C266.2,560.9,271.4,561.2,276.1,565.4z"/>
			<path class="st36" d="M42.5,192.3c-0.8,3.9-1.6,8.4-6.2,9.8c-2.4,0.7-2.8-2.5-2.4-4.2c1-4.2,1.4-9.4,6.5-10.6
				C42.6,186.8,42.4,190.1,42.5,192.3z"/>
			<path class="st51" d="M469.5,513.4c-4.1,6.6-8.5,9.4-14,10.9c-1.3,0.3-2.6,0.7-3.4-0.4c-1-1.2,0-2.3,0.9-3.2
				C457.1,516.4,462,513.9,469.5,513.4z"/>
			<path class="st21" d="M45.9,173.6c1.9-2.9,3.8-5.9,5.7-8.8c6.9,1.3,3,5.8,2.1,8.6c-0.9,2.8-2.8,6.4-6.7,5.5
				C44.9,178.4,46.6,175.3,45.9,173.6z"/>
			<path class="st42" d="M225.9,84.1c-1.2,4.9-4.4,7-8.6,7.8c-2.1,0.4-4.8-0.4-4.2-2.7c1-4.6,4.9-6.6,9.2-7.5
				C224.5,81.2,225.1,83,225.9,84.1z"/>
			<path class="st50" d="M32,214.5c-0.6,5.2-1.2,8.8-4.4,11.3c-0.9,0.7-2.1,0.6-2.6-0.3c-1.9-3.6-0.8-7.2,0.6-10.6
				c0.8-2,1.6-4.7,4.2-4C31.4,211.3,32.2,213.8,32,214.5z"/>
			<path class="st28" d="M119.6,102.8c2.8-2.4,4.9-5.7,8.4-7.1c1.4-0.6,3-1,4.2,0.2c1.3,1.4,0.2,2.7-0.5,4c-1.9,3.4-5.5,4.8-8.4,7.1
				C120.7,106.7,118.8,106,119.6,102.8z"/>
			<path class="st52" d="M376.9,562.1c4.5-5.6,8.9-7,17.2-5.3C388.9,562.6,384.5,564,376.9,562.1z"/>
			<path class="st28" d="M102.5,123.8c-1.4-5.9,2.9-8.1,6.8-10.3c2.7-1.5,4.6-0.2,5.5,2.7c-1.9,2-1.8,6.1-5.9,6.1
				C106.9,123.2,104.9,124.7,102.5,123.8z"/>
			<path class="st53" d="M121,519.1c-8.3-0.9-11.4-3-17.2-11.7C111.6,509.1,116.8,512.3,121,519.1z"/>
			<path class="st54" d="M84.7,461.1c-1.6-1.2-3.3-2.3-4.6-3.7c-2.5-2.6-6.8-5.3-4.3-9.2c2.2-3.4,5.8,0.3,8.8,0.8
				c0.1,0.4,0.1,0.8,0.1,1.2c1.8,3.4,3,6.7,0,10.1l0.4,0.4L84.7,461.1z"/>
			<path class="st21" d="M23,242.3c-0.1,2.9-0.7,6.2-3.3,8.8c-0.3,0.3-1.6,0.2-1.9-0.1c-2.3-3.1-1.4-6.6-0.9-10
				c0.3-2.4,0.6-5.9,3.5-5.6C23,235.7,22.9,239.2,23,242.3z"/>
			<path class="st16" d="M239.4,566.5c-3.8-0.4-7.4-1.3-10.2-4.2c-0.2-0.2,0.2-1.6,0.6-1.9c3.4-1.9,6.9-0.9,10.2,0
				c2.3,0.6,6,1.2,5.6,4C245.2,567.7,241.6,566,239.4,566.5z"/>
			<path class="st50" d="M154,95.4c-2.3,0-4-0.4-3.3-2.4c1.6-5,5.9-7,10.6-8c1.5-0.3,3.4,0.7,2.8,2.4
				C162.2,92.2,158.2,94.5,154,95.4z"/>
			<path class="st55" d="M501.6,487c0.3,1.3,0.5,1.6,0.4,1.8c-2.7,5.8-7.1,9.4-13.3,10.7c-0.3,0.1-1.4-1.2-1.3-1.5
				C490.3,492.1,495,488.6,501.6,487z"/>
			<path class="st22" d="M10.5,268.7c0.6-2.9-0.2-7.8,2.7-7.7c4.1,0.2,3.4,5.2,3.4,8.5c0,2.9-0.6,7.5-3.3,7.2
				C9.4,276.3,11.1,271.6,10.5,268.7z"/>
			<path class="st56" d="M142.7,531.8c0.6,0.2,1.3,0.5,2,0.8c4.4,1.6,8.9,3.1,11.3,7.7c0.1,0.2-0.9,1.5-1.3,1.4
				c-5.1-0.5-9.4-3-13.3-6.1c-0.6-0.5-1.1-1.7-1-2.6C140.3,531.7,141.6,531.9,142.7,531.8z"/>
			<path class="st57" d="M8.9,285.3c4.1,6.7,5.1,12.2,1.4,19.5C6.2,298.2,6,292.6,8.9,285.3z"/>
			<path class="st25" d="M200.4,88.1c-1.6-0.4-4.5,0.2-3.7-2.2c1.4-4.2,4.9-6.8,9.5-7.3c1.5-0.2,3.7-0.1,3.2,1.9
				C208.4,85.1,205,87.5,200.4,88.1z"/>
			<path class="st58" d="M69.8,320.7c-3.5-0.3-4,1.5-3.5,4.6c0.5,3.6-0.7,7.5,1.8,10.8c-8.9-4-10-10.3-3-16.7
				C66.7,319.5,68.6,318.9,69.8,320.7z"/>
			<path class="st44" d="M561.9,392.5c-1.6-7,2.1-11.6,6.3-16.5C570.8,382.6,568.8,387.8,561.9,392.5z"/>
			<path class="st40" d="M560.8,209.4c0.9,0.5,1.7,0.7,2.1,1.2c3,4.2,4.2,8.9,2.7,13.9c-0.3,1.1-1.9,0.8-2.4,0
				C559.9,220,558,215.2,560.8,209.4z"/>
			<path class="st50" d="M35.4,409.7c0.9,2,1.7,4,2.6,6c-0.8,3.5-2.4,3.2-4.4,1c-3.5-3.8-6.6-7.9-6.1-13.9
				C31.9,403.3,32.6,407.7,35.4,409.7z"/>
			<path class="st27" d="M200.4,557.3c7.4-1.5,13-0.2,19,5.6C211.6,564,205.9,563.3,200.4,557.3z"/>
			<path class="st59" d="M277.3,71.2c2.7-0.3,5.6-1,6.9,2.4c0.7,1.8-0.1,3.4-1.3,4.7c-2.8,2.8-5.6,2.4-8.6,0.2
				C273.6,75.3,275.3,73.2,277.3,71.2z"/>
			<path class="st60" d="M60.4,156.9c-0.5-6.9,2.9-11.1,9.1-13.5C70,150.3,68.2,155.6,60.4,156.9z"/>
			<path class="st61" d="M554.4,201.9c-4.4-4.6-6.2-9.9-4.7-16.2C556.4,191,558.1,196.7,554.4,201.9z"/>
			<path class="st62" d="M457.8,529.4c-5,7-9.9,9.7-16.1,10.5c-0.3,0-1.1-1.4-1-1.6C444.5,533.3,449.9,531.3,457.8,529.4z"/>
			<path class="st63" d="M314.3,576.5c5.9-3.9,11.2-4.9,17.8-1.7C326.2,578.9,320.9,579.8,314.3,576.5z"/>
			<path class="st51" d="M577.3,276.1c-3.6-5.5-3.7-10.8-0.8-16.7C580.7,265.1,580.9,270.1,577.3,276.1z"/>
			<path class="st64" d="M570.3,233.8c4.4,4,3.8,8.9,3.6,13.6c0,1.1,0,2.9-1.7,2.7c-1-0.1-2.2-1.4-2.5-2.4
				C568.4,243.2,566.1,238.6,570.3,233.8z"/>
			<path class="st65" d="M169.3,78.6c3.2-6,7.4-8.6,13.5-8.7C180.8,76.3,178,78.2,169.3,78.6z"/>
			<path class="st46" d="M195.2,76.8c-0.4,3.2-8.1,8-11.2,7c-1-0.3-1.7-0.8-1.7-2c0-2.9,9-8.6,11.7-7.3
				C194.8,75,195.8,75.5,195.2,76.8z"/>
			<path class="st59" d="M78.6,135.9c-2.3,0.4-3.6-0.7-2.7-2.8c0.9-2.2,2.3-4.3,3.8-6.3c1.3-1.7,3.2-4.1,5.4-3c2.5,1.4,0.5,4,0,6
				C84,133,80.1,133.2,78.6,135.9z"/>
			<path class="st26" d="M268.2,73.5c-1.1,3.2-3.2,5.5-7,5.6c-1.8,0-3.8-0.6-3.4-3c0.7-3.9,3.2-6.2,7.2-6.2
				C267,69.9,268.3,71.1,268.2,73.5z"/>
			<path class="st21" d="M108.6,369c-4.7-4.6-10.9-7.6-14.7-13.1C104.1,356.6,108.4,360.5,108.6,369z"/>
			<path class="st5" d="M430.8,330c-0.4-5,0.1-9.8,3.2-14C440.5,322,439.8,325,430.8,330z"/>
			<path class="st66" d="M10.3,331.3c-5-6-5-11.6-4.3-17.7C11,317.4,11.8,320.6,10.3,331.3z"/>
			<path class="st67" d="M359.8,572c-6.3,4.4-11.5,5.4-18.5,4.3C346.8,570.9,352.1,570.2,359.8,572z"/>
			<path class="st68" d="M540.4,242.7c-4-2.6-4.3-8.2-8.7-10.4c0-0.4,0-0.8,0.1-1.1C540.6,230.1,543.8,234.5,540.4,242.7z"/>
			<path class="st36" d="M532.7,456.6c-2.6,7.8-6.4,12.1-13.6,15.7C521.1,464.5,525.2,460.5,532.7,456.6z"/>
			<path class="st35" d="M175.8,552.4c7-0.1,12.1,1.5,16.2,6.5C184.6,560.3,180.8,558.7,175.8,552.4z"/>
			<path class="st18" d="M287.5,576.1c6-3.2,11.2-3.4,17.1,0C298.8,580,293.6,580.2,287.5,576.1z"/>
			<path class="st66" d="M580.3,302.7c-3.5-5.7-2.1-11.2,0.5-17.3C584.5,293.2,584.4,296.1,580.3,302.7z"/>
			<path class="st25" d="M245.2,77.4c-2-0.2-4.1-0.8-3.2-3.1c1.3-3.4,3.9-5.8,7.7-6.1c1.9-0.2,2.8,1.2,2.5,2.8
				C251.6,75,248.8,76.8,245.2,77.4z"/>
			<path class="st46" d="M275.7,87.3c1,0.2,1.9,0.4,2.9,0.6c2.3,3.8-0.4,6.7-1.6,9.9l0.3,0.4c-3.1,0.3-6.2,0-7-3.6
				C269.3,90.5,272.4,88.6,275.7,87.3z"/>
			<path class="st69" d="M259.7,574.7c7.5-2.6,12.6-1.9,18.7,1.6C271.5,579.9,266.4,578.7,259.7,574.7z"/>
			<path class="st61" d="M45.4,441.8c-6.6-3.8-9.4-8.8-10.8-16.1C40.9,429.8,44.1,434.5,45.4,441.8z"/>
			<path class="st41" d="M230,75.1c-1.8,0-3.5-0.5-2.9-2.3c1.3-3.7,4.1-6,8.1-6.5c1.6-0.2,3.3,0.2,2.7,2.2
				C236.8,72.4,233.5,74,230,75.1z"/>
			<path class="st64" d="M140.4,102.9c0.5-0.4,1-0.8,1.5-1.3c4.7,1.3,5,3.9,2,7.3c-1.8,2-3.7,3.9-6.5,4.5c-3,0.4-2.6-1.7-2.1-3.3
				C136.1,107.1,138.1,104.9,140.4,102.9z"/>
			<path class="st70" d="M236.8,134.2c5.6,0.7,9.1-5.4,14.8-4.4c-0.5,6.6-5.7,6.8-10.5,7.6C239.8,136.2,237.6,136.1,236.8,134.2z"/>
			<path class="st42" d="M402.7,558.6c5.8-5.4,11-7.5,18.4-7.5C416,556.8,410.8,559,402.7,558.6z"/>
			<path class="st71" d="M290.8,477.5c0.9,3.8,1.9,7.7,2.8,11.5c-4.1-0.3-7.2-2.5-8.6-6c-1.3-3.2,2.2-4.3,4.3-5.8
				C289.8,477.3,290.3,477.4,290.8,477.5z"/>
			<path class="st72" d="M508.4,491.4c2.3-7.1,6.6-10.5,13.3-13.9C518.5,484.3,515.1,488.4,508.4,491.4z"/>
			<path class="st13" d="M304.1,507.2c-0.8-4.1-4.1-6.6-5.8-10.2c1.7,0.1,3.4,0,5,0.4c6.8,2.1,7.4,4.5,2.5,9.8
				C305.2,507.2,304.7,507.2,304.1,507.2z"/>
			<path class="st73" d="M564.5,400.1c-0.7,7.3-3.2,12.6-8.8,17.3C555.1,409.5,558.8,404.9,564.5,400.1z"/>
			<path class="st25" d="M489.9,506.5c-2.9,5.6-7.1,9.4-14.9,11.1C479,510.8,483.8,507.8,489.9,506.5z"/>
			<path class="st74" d="M21.5,352.5c4.1,2.5,5.7,6.5,6.3,10.9c0.4,2.7,0.6,5.6-3.4,5.8c-0.5-0.6-0.9-1.1-1.4-1.7
				C23,362.4,18,357.9,21.5,352.5z"/>
			<path class="st39" d="M250.6,576.2c-5.9,1.7-10.7,0.2-15.3-3C240.9,570,245.1,570.8,250.6,576.2z"/>
			<path class="st75" d="M71.3,480.9c4.6-1.5,6.2,4.4,10.3,4.2c1.1,2.2,2.2,4.3,3.6,7.3C77.4,491.4,74.9,485.4,71.3,480.9z"/>
			<path class="st76" d="M11.7,356.5c-4.1-4.6-4.9-10.1-5.3-17.7C12,344.9,12.6,350.4,11.7,356.5z"/>
			<path class="st42" d="M99.8,398.8c1.5-4.4,5.1-6.5,8.8-8.6C110.9,397.8,109.2,399.5,99.8,398.8z"/>
			<path class="st66" d="M584,312.2c0.5,6,1.1,11.4-2.6,16.6C578.7,321.8,579.2,318.7,584,312.2z"/>
			<path class="st50" d="M215.8,72c-1.5,0.5-3-0.8-2.7-1.6c1.4-4.2,5.1-5.8,9-7c1.1-0.3,3.1-0.2,2.6,1.5
				C223.4,69.1,219.8,70.9,215.8,72z"/>
			<path class="st60" d="M21.5,352.5c-0.3,5.1,4.4,9.7,1.5,15.1c-2.8-2.7-4.2-6.2-4.8-9.9c-0.3-2.3-1.5-5.9,3-6.2
				C21.2,351.8,21.3,352.1,21.5,352.5z"/>
			<path class="st77" d="M227,573.6c-7.3,1.5-11.9,0-16.8-3.8C216.5,567.3,220.9,569.8,227,573.6z"/>
			<path class="st21" d="M174.9,263.7c0.4,4.5-0.2,8.7-3.2,12.3C166.6,269.8,167.3,266.9,174.9,263.7z"/>
			<path class="st26" d="M84.6,460.3c0-3.4,0-6.7,0-10.1c2.2,0.2,3.3,2,4.5,3.5c1.5,1.9,4,4.1,2.3,6.4
				C89.9,462.3,86.9,461.5,84.6,460.3z"/>
			<path class="st41" d="M369.1,573.1c4.6-4.3,8.2-5.4,14.8-4.6C379.1,573.2,376.3,574.1,369.1,573.1z"/>
			<path class="st26" d="M199.7,68.1c3.9-4.9,7.5-7.8,13.1-7.7C209.8,66.5,208.5,67.3,199.7,68.1z"/>
			<path class="st65" d="M266.4,113.5c-0.4-0.1-0.8-0.3-1.2-0.4c1.2-6.6,5.8-7.7,11.5-7.1c0.1,0.5,0.2,0.9,0.4,1.3
				C276,113.5,271.1,113.4,266.4,113.5z"/>
			<path class="st78" d="M168.1,554.2c-7.9,0.6-12-2.6-16.4-7.3C158.3,547.1,162.7,549.7,168.1,554.2z"/>
			<path class="st47" d="M118.2,526.1c5.8,0,10,2.9,13.8,8.4C125.1,534.1,121.6,530.3,118.2,526.1z"/>
			<path class="st79" d="M190.1,64.2c2.7-5.2,6.7-6.8,11.2-7.5c0.4-0.1,1.5,1.9,1.4,1.9C199.4,61.5,195.8,64.1,190.1,64.2z"/>
			<path class="st13" d="M140.4,102.9c0.8,4-6.3,5.8-3,10.5c-0.9,0.4-1.9,0.8-2.8,1.3C131,109,132.4,106.3,140.4,102.9z"/>
			<path class="st80" d="M251,51.8c0.2,0.8,0.4,1.1,0.3,1.3c-1.5,4.2-4.8,6.1-8.9,6.8c-0.3,0.1-1.3-1.3-1.1-1.6
				C243.2,54.1,246.8,52.6,251,51.8z"/>
			<path class="st3" d="M289,585c4.5-2.7,8.7-2.4,14.3-0.3C297.9,587.8,293.7,587.9,289,585z"/>
			<path class="st81" d="M164.4,72.9c-0.6-0.9-5.7,1-1.9-2.8c2.8-2.8,6.2-4.7,10.3-5.1C172.1,69.9,168.1,71.2,164.4,72.9z"/>
			<path class="st82" d="M29,192.2c-0.2-7,2.6-11.1,6-15.1C35.5,182.5,33.7,187,29,192.2z"/>
			<path class="st65" d="M202.7,570.4c-7,1.5-11-1.9-16.5-5.2C193.2,564.1,197.5,566.8,202.7,570.4z"/>
			<path class="st83" d="M268,63.2c-1.1,0.2-2.1-0.8-1.9-2.6c0.3-3.1,2.6-4.7,5.2-5.7c1.7-0.6,3,1,2.7,2.4
				C273.5,60.1,271.8,62.3,268,63.2z"/>
			<path class="st84" d="M262.1,55.9c-1.2,3-3.5,5-6.7,6c-1.4,0.5-2.8-0.9-2.4-2c1-2.9,3.1-5,6.3-5.8
				C260.7,53.8,261.8,53.9,262.1,55.9z"/>
			<path class="st85" d="M281.7,55.9c2.8-0.1,5.3,0.5,4.6,3.9c-0.9,3.9-3.7,4.9-7.3,3.3C279.9,60.7,279.5,57.8,281.7,55.9z"/>
			<path class="st86" d="M450.3,257.8c-0.7,4.4-2,8.7-1.3,13.2c-1-0.6-2-1.1-3-1.7C443,263.8,444.2,259.8,450.3,257.8z"/>
			<path class="st87" d="M429,552.1c3.6-4.1,8.2-5.6,13.6-7.1C438.4,551.1,435.3,552.6,429,552.1z"/>
			<path class="st61" d="M556.2,424.9c-1.7,6.9-3.5,11.2-9.8,14.8C548.5,433.4,550.7,429.4,556.2,424.9z"/>
			<path class="st79" d="M230.3,57.1c3.1-5.1,4.2-5.8,10.5-6.6C237.6,55.7,236.7,56.3,230.3,57.1z"/>
			<path class="st88" d="M184,59c0.1-6.1,6.5-4.5,9.1-7.4c1.9,0.2,4.2,0.6,1.5,2.7C191.6,56.7,188.3,59.2,184,59z"/>
			<path class="st68" d="M42.6,161.4c2.3-1.4,2.2-5.1,5.8-5.7c0.3,5.3-2.3,8.9-5.9,12.1C39.7,165.7,42.4,163.6,42.6,161.4z"/>
			<path class="st89" d="M475.5,524.2c-2.7,4.2-6,7.6-12.1,8.8C466.3,527.3,470.9,525.7,475.5,524.2z"/>
			<path class="st90" d="M582.8,340c0.2,6.2-0.4,10.9-3.4,15.7C577.9,349.7,578.9,345.1,582.8,340z"/>
			<path class="st91" d="M1.8,291.2c0-4.6-0.1-7.4,0-10.2c0.1-1.4,0.4-2.8,1.5-4.1C5.5,281.1,5.5,285.3,1.8,291.2z"/>
			<path class="st92" d="M93.5,509.1c-3.5-2.4-6.6-5.1-9.3-10c5.5,1.6,8.4,4.8,11.2,8C95.7,508.7,95.2,509.5,93.5,509.1z"/>
			<path class="st77" d="M242.9,582.1c4.3-1.4,8.4-1.2,12.7,1.8C250.6,587.1,246.9,584.1,242.9,582.1z"/>
			<path class="st93" d="M351.6,580.8c-5.3,4.2-9.6,4.3-16.2,4.3C341,580.2,345.5,581.1,351.6,580.8z"/>
			<path class="st94" d="M45.9,450.3c5,2.8,7.3,6.8,9.3,11.6C49.3,459.1,48.1,457.6,45.9,450.3z"/>
			<path class="st41" d="M313.3,585.4c4-3.5,8.4-2.8,13.4-2.3C322.4,588.1,317.5,585.2,313.3,585.4z"/>
			<path class="st95" d="M264.2,583.1c6-0.3,10.3-1.2,15.5,2.2C274,586.3,269.7,587.1,264.2,583.1z"/>
			<path class="st96" d="M393.6,569.7c3.4-3.6,7.2-6.3,13.1-4.5C402.6,568.6,398.3,569.6,393.6,569.7z"/>
			<path class="st65" d="M533.3,144.9c-4.3-1.6-5.2-6.1-8-9.1C529.9,135,532,137.4,533.3,144.9z"/>
			<path class="st72" d="M22.6,200.6c1.6,4.6,1.2,8.7-2.1,11.9c-0.3,0.2-1.3-0.3-1.9-0.5C20,208.2,21.3,204.4,22.6,200.6z"/>
			<path class="st97" d="M219.6,578.6c5.9-0.1,9.8,0.9,14.2,3.7C228.3,583.8,224.6,581.8,219.6,578.6z"/>
			<path class="st80" d="M559.7,189.5c-3.5-4.4-5.6-8-5.2-13.6C557.8,180,559.9,183.6,559.7,189.5z"/>
			<path class="st98" d="M11.2,366.7c2.7,4.5,5.2,8,3.6,13.9C12.3,375.9,10.1,372.3,11.2,366.7z"/>
			<path class="st99" d="M284.7,43.7c1.4-0.9,2.7-1.7,4.4-0.8c-0.2,3.2-1,5.9-4.3,7.2C281.9,48,284.1,45.9,284.7,43.7z"/>
			<path class="st100" d="M213.3,50c3.7-4.3,7.1-4.8,11.7-5C221.5,48.2,218.6,50.4,213.3,50z"/>
			<path class="st101" d="M1.2,314.4c-1.2-3.5-1.4-6.3,0.2-9.5C3.6,309.5,3.6,309.5,1.2,314.4z"/>
			<path class="st66" d="M231.1,48.5c-3.1,4.8-7.1,4.7-12.2,6.9C222.8,50.7,225.8,48.6,231.1,48.5z"/>
			<path class="st102" d="M205.3,47.5c4.6-4.2,8.3-5.4,13.7-6.3C215.1,45.4,211.2,46.4,205.3,47.5z"/>
			<path class="st41" d="M497.4,507.1c2.4-3.6,5.1-6.9,9.4-8.2C504.6,502.6,502.2,506.1,497.4,507.1z"/>
			<path class="st47" d="M53.4,292c-4.4-1.3-5.9-3.6-4.6-7.4C51.3,286.4,53.3,288.6,53.4,292z"/>
			<path class="st103" d="M289.6,591.7c2.6-1,3.2-1.4,3.8-1.4c2.2-0.1,4.3,0,7.8,0C297.3,593.6,294.5,592.7,289.6,591.7z"/>
			<path class="st88" d="M144.6,549.1c-2.9-1.4-6.5-1.7-8.8-4.6C141,543.9,141.1,544,144.6,549.1z"/>
			<path class="st104" d="M7.8,257.6c0.5-2.7-3.4-5.1-0.2-8.4c3.2,3.4,1.4,6.9,0.4,10.3C7.3,259,7.3,258.3,7.8,257.6z"/>
			<path class="st25" d="M280.3,41.7c-0.3,4.5-2.3,6.3-5.8,7.3C274.1,44.8,276.5,43.3,280.3,41.7z"/>
			<path class="st105" d="M578.8,368c-0.5,2.9,0.2,6.2-2.7,9.3C574.6,372.9,576.2,370.3,578.8,368z"/>
			<path class="st106" d="M264,48.1c2.3-4,4.5-5.8,7.5-7.2C270.2,45.5,270.2,45.5,264,48.1z"/>
			<path class="st107" d="M568,210.8c-0.6-3.3-3-6.2-2.1-10.5c2.5,2.3,3.2,4.8,3.6,7.5C569.6,209.1,570.9,211,568,210.8z"/>
			<path class="st47" d="M546.6,166.2c-1.9-1.4-2.8-3.4-3.3-5.6c-0.5-1.4-0.1-2.3,1.6-2.2C546.1,160.9,549.7,162.8,546.6,166.2z"/>
			<path class="st108" d="M14,232.3c0.1,2.5,0.2,5-2.7,7c-0.6-2.7-1.7-5.1,1-7.1C13,231.6,13.5,231.7,14,232.3z"/>
			<path class="st109" d="M7.8,257.6c0.1,0.6,0.2,1.3,0.2,1.9c-0.2,1.9,0.1,4-2.7,5C5.5,261.8,2.5,258.4,7.8,257.6z"/>
			<path class="st110" d="M330.7,591.2c2.2-4,4.1-0.6,7.1-2C335.2,592.7,333.1,592,330.7,591.2z"/>
			<path class="st111" d="M253.1,589.2c3.3-0.6,5.6-0.3,7.3,2.1C257.7,592.1,255.5,591.9,253.1,589.2z"/>
			<path class="st112" d="M576.1,230.9c2.8,1.4,2.3,3.7,2,6.3C575.4,235.6,575.6,233.3,576.1,230.9z"/>
			<path class="st18" d="M14,232.3c-0.5,0-1.1-0.1-1.6-0.1c0-2.7,0.2-5.3,2.4-7.6C15.6,227.4,15.6,229.9,14,232.3z"/>
			<path class="st113" d="M369,581c-1.4,0.4-2.7,1-4.1,1.2c-1.2,0.2-3.3,1.1-3-1.3c0.2-1.6,2.2-1.4,3.6-1.5
				C366.9,579.3,368.9,578.1,369,581z"/>
			<path class="st114" d="M526.1,480.4c0.4-3.8,2.2-4.9,4-7C531,477.3,528.6,478.2,526.1,480.4z"/>
			<path class="st73" d="M269.3,591.3c4.1-1.9,6.9-1.4,11.6-0.1C276.4,592.5,273.6,592.2,269.3,591.3z"/>
			<path class="st66" d="M176.5,564.2c-3.5,1.6-5.2-0.8-8.1-1.5C172,560.7,174.2,561.8,176.5,564.2z"/>
			<path class="st115" d="M255.4,41.7c-1.4,0.8-2.3,1.5-3.3,1.8c-1.2,0.4-2.1-0.6-1.5-1.5c0.6-0.9,2-1.4,3.1-1.8
				C253.9,40.1,254.5,40.9,255.4,41.7z"/>
			<path class="st116" d="M211.8,579.3c-1.7,1-3.4,0.8-4.9-0.4c-0.1-0.1,0.3-1.6,0.7-1.7C209.4,576.8,210.9,577.6,211.8,579.3z"/>
			<path class="st117" d="M369,581c-0.8-1.4-2.3-1.2-3.5-1.5c2.4-1.2,4.7-2.5,7.6-1C372.3,580.5,370.5,580.5,369,581z"/>
			<path class="st40" d="M312.6,591.5c2.3-1.9,4.9-1.8,7.8-1C317.8,593,315.1,591.5,312.6,591.5z"/>
			<path class="st118" d="M102.5,123.8c2.1-0.9,4.1-2.1,6.5-1.5c-1.2,2.9-3.6,3.3-6.3,3C102.4,124.8,102.4,124.4,102.5,123.8z"/>
			<path class="st96" d="M544.9,158.5c-0.5,0.7-1,1.5-1.6,2.2c-1.5-2-2.4-4.2-2.6-6.7C542.8,154.8,544.1,156.4,544.9,158.5z"/>
			<path class="st76" d="M164.5,295.4c3.2,1,3.1,3.6,2.9,6.2C164.5,300.4,164.2,298.1,164.5,295.4z"/>
			<path class="st119" d="M587.5,303.3c2,3.1,1,5.3,0.9,8.4C586.6,308.6,587.4,306.4,587.5,303.3z"/>
			<path class="st120" d="M2.6,332.1c1,3.2,1,5.2,0.2,7.7C1.4,337.1,1.7,335.1,2.6,332.1z"/>
			<path class="st82" d="M257.7,43.6c1.3-0.8,2.2-1.7,3.3-2c1.6-0.5,1.5,1.2,1.1,1.7c-0.7,0.9-1.9,1.4-2.9,1.9
				C259,45.3,258.4,44.4,257.7,43.6z"/>
			<path class="st50" d="M539,456.3c0.9-1.6,1.6-3.4,4-4.2c1.1,2.8-1.3,4.1-2.4,5.8C539.2,458.2,538.4,457.9,539,456.3z"/>
			<path class="st121" d="M450.6,546.5c0.4-2.6,2-3.2,3.6-3.8c0.2-0.1,1.3,1.2,1.2,1.4C454.6,545.7,453.1,546.4,450.6,546.5z"/>
			<path class="st122" d="M109.4,525.3c-2.8-0.2-4.8-1-4.6-2.6c0.4-2.6,2-1,3-0.1C108.4,523,108.6,523.8,109.4,525.3z"/>
			<path class="st123" d="M87.2,513.2c1.1-1,1.5-1.6,1.7-1.5c1.2,0.5,2.1,1.2,2.3,2.6c0,0.1-0.9,0.4-1.3,0.3
				C89,514.2,88.2,513.7,87.2,513.2z"/>
			<path class="st124" d="M20.5,196.8c1.3,1.8,0.7,2.9-0.2,3.8c-0.2,0.2-1.1,0.2-1.2,0.1C18.5,199,19.9,198.3,20.5,196.8z"/>
			<path class="st125" d="M568,210.8c0.5-1,1-2,1.6-3.1c1.4,1.8,2.2,3.9,0.4,5.4C569.2,213.9,568.4,211.9,568,210.8z"/>
			<path class="st126" d="M576.8,225.9c-0.4,0.7-0.7,1.7-1.1,1.8c-1,0.2-1.8-0.3-1.8-1.5c0-0.8-0.4-2.1,0.8-2.1
				C575.4,224,576,225.1,576.8,225.9z"/>
			<path class="st127" d="M93.5,509.1c0.6-0.7,1.3-1.3,1.9-2c1.2,1,3.6,1.9,2.1,3.6C96.5,511.9,94.6,510.4,93.5,509.1z"/>
			<path class="st115" d="M539,456.3c0.5,0.5,1.1,1.1,1.6,1.6c-0.7,1.5-1.5,3.9-3.4,2.5C536,459.4,537.6,457.4,539,456.3z"/>
			<path class="st128" d="M259.2,594.3c1.4-1.2,3-1.4,4.7-0.4C262.5,595.7,260.9,594.3,259.2,594.3z"/>
			<path class="st129" d="M553.4,443.8c-1.1-2.3-0.5-3.9,0.9-4.2c1.5-0.3,0.9,1.1,0.5,1.9C554.5,442.1,554.1,442.7,553.4,443.8z"/>
			<path d="M242.4,177.9c1-1.1,2-2.1,3-3.3c10.2-11.8,10.2-11.5,25.9-11.8c6.2-0.1,10,1.6,11.6,7.8c0.6,2.3,2.5,4.3,3.8,6.4
				c4.2,3,7.7,7.5,13.8,6.1c1.2-0.4,2.4-0.9,3.6-1.2c0.7-0.1,1.3,0,1.8,0.4c1.1,3.3,1.9,6.7,3.4,9.8c1.1,2.2,1,7.4,5.1,5.3
				c2.5-1.3,4.4-5.8,2.2-9.2c-3.2-5-1.1-7.2,3.4-8.9c2.8,0.3,5,1.2,5.6,4.3c-0.9,3.8,0.9,6.7,3,9.6c0.4,0.7,0.3,1.3,0,2
				c-1.8,2.4-5.9,4.2-3.3,8c2.6,3.8,6.9,3.3,10.9,2.7c3-0.4,4.7-3.7,7.9-3.8c3.5-3.9,9-1.9,12.9-4.5c2.4,1.5,3.1,3.8,3.3,6.5
				c-0.5,3.1-1.2,6.2-1.4,9.4c-0.5,7.6-4.1,11.1-11.9,9.8c-1.1,0-2-0.3-3-0.8c-5.8-3.6-11.5-3.5-17.2,0.1c-0.9,0.5-1.9,0.7-3,0.7
				c-5.4-4.3-10.9-8.3-17.9-2.9c-4.6,1.8-9.5-0.4-14.2,1c-0.8,0-1.5-0.3-2.1-0.9c-1.7-2.6-4.7-2.6-7.1-3.8c-4.7-2.3-11.8-3.1-7-11.6
				c1.1-1.9-0.5-5.3-2.7-7.3c-2.2,0.8-3.8-0.9-5.6-1.4c-4-2.3-7.8-0.2-11.6,0.7c-0.7,0-1.3-0.3-1.9-0.8c-4.9-0.4-9.3,1.3-13.8,2.9
				c-1.5-1-2.2-2.4-1.6-4.3c-0.3-4.8,2.4-9.2,1.5-14C239.3,178.6,240.3,177.7,242.4,177.9z"/>
			<path class="st6" d="M297.9,394.4c-6.5,0.1-14.9-4.8-14-8.7c1.5-6.4,7-7.6,12.7-8.1c0.2,0,0.5-0.1,0.7-0.1
				c7.3-0.3,14.1,3.6,14.3,8C311.9,389.7,304.9,394.3,297.9,394.4z"/>
			<path class="st6" d="M297.8,350.4c7.3,0,14.8,4.5,13.7,8.7c-1.8,6.8-7.9,7.8-13.7,8.1c-7.1,0.4-14.1-4.4-13.8-8.9
				C284.3,354.2,290.8,350.4,297.8,350.4z"/>
			<path class="st6" d="M341,366.3c-2.4-0.3-4.2-0.2-5.8-0.8c-3.3-1.2-6.8-2.7-7.2-6.8c-0.4-4.3,2.9-6.1,6.2-7.5
				c4.5-2,9.1-2.4,13.9-0.9c3.5,1.1,7,2.5,7.3,6.6c0.3,4.5-3.2,6.6-6.9,7.9C345.9,365.6,343.1,365.9,341,366.3z"/>
			<path class="st6" d="M386.8,346.5c5.5-0.2,10.9,1.3,11.6,7.1c0.6,5.5-4.8,7.8-9.4,9c-5.6,1.5-11.4,1.7-16-3
				c-1.7-1.7-2.2-3.9-0.8-6.1C375.5,348,380.9,346.7,386.8,346.5z"/>
			<path class="st6" d="M340.8,393.1c-3.3,0-6.5-0.4-9.3-2.4c-4.5-3.1-4.7-7.9-0.1-10.9c5.2-3.4,11-4.4,17.1-2.5
				c3.4,1.1,6.8,2.7,6.9,6.9c0.1,3.8-2.9,5.5-5.9,7C346.8,392.5,343.9,393.1,340.8,393.1z"/>
			<path class="st6" d="M338,339c-3.6-0.1-10.2-1.3-10.3-7.8c-0.2-6.4,6.5-8.1,12.1-8.7c8-0.8,14,2.4,14.4,7.4
				C354.6,335.2,348.7,339,338,339z"/>
			<path class="st6" d="M298.5,323.7c5.9,0,12.3,1.2,12.8,7.6c0.5,7-6.5,7.9-11.9,8.8c-7.1,1.1-14.5-3.3-14.8-8.4
				C284.4,326.8,289.9,323.6,298.5,323.7z"/>
			<path class="st6" d="M382.4,336.3c-5.4-0.3-11-1.1-11.8-7.1c-0.8-5.9,4.7-7.6,9.3-9c5.5-1.6,10.9-1.3,15.4,2.8
				c2,1.8,2.8,4.2,1.1,6.7C393.2,335,387.8,335.9,382.4,336.3z"/>
			<path class="st6" d="M255.4,339c-7.4-0.1-13.9-4.3-13.7-8.9c0.3-4.6,7.4-8.5,14.6-7.6c5.6,0.7,12.1,2.4,11.7,9
				C267.6,338.3,261.1,339.1,255.4,339z"/>
			<path class="st6" d="M338.9,312.1c-4.9-0.3-11.5-0.9-11.8-7.7c-0.3-6.8,6.5-8,11.9-8.9c6.7-1.1,14.3,3.3,14.5,7.8
				C353.7,307.9,347.1,312,338.9,312.1z"/>
			<path class="st6" d="M297.4,296.6c7.6,0,14,3.9,14,8.2c0,4.3-7.5,8.9-14.1,8.5c-1.2-0.1-2.5-0.3-3.6-0.7
				c-4.3-1.4-9.3-2.8-8.7-8.5c0.6-5.4,5.3-6.6,9.9-7.3C295.8,296.7,296.8,296.7,297.4,296.6z"/>
			<path class="st6" d="M213.6,336.8c-7.4-0.5-14-5.4-12.9-10c1.5-6.4,7.2-7.1,12.6-7.1c7.4,0,13.5,5,13,9.9
				C225.7,333.9,219.8,337.2,213.6,336.8z"/>
			<path class="st6" d="M257.2,312.1c-8.3,0-14.8-4.4-14.2-9.2c0.5-4.4,8.5-8.4,14.9-7.3c1.7,0.3,3.4,0.8,5,1.6
				c3.2,1.6,6.5,3.5,6,7.7c-0.5,3.9-3.7,5.8-7.3,6.7C259.9,312.1,258.1,312,257.2,312.1z"/>
			<path class="st6" d="M297.9,403.8c5,1.4,11.7,0.9,13.6,7.9c1,3.7-6.2,8-13.3,8.3c-6.9,0.3-14.5-3.9-14.5-8.1
				C283.8,408,290.8,403.9,297.9,403.8z"/>
			<path class="st6" d="M216.3,310c-6.5,0-14.5-5-13.8-9.2c1.2-6.4,6.8-7.5,12.2-7.7c6.3-0.3,13.2,4.6,13.4,8.8
				C228.2,306.1,222.6,309.9,216.3,310z"/>
			<path class="st6" d="M394.4,298.3c1.6,8.7-5.1,9.5-10.7,10.7c-5.9,1.2-11.7,0.4-14.5-5.9c-1.5-3.3,0.9-5.8,3.5-7.4
				c5.5-3.3,11.4-4.7,17.5-1.4C391.4,296,392.8,297.3,394.4,298.3z"/>
			<path class="st6" d="M342,402.9c5.8,0.7,12.4,1,13,7.3c0.5,6-5.9,7.3-10.7,8.3c-2.8,0.6-6,0.5-8.8-0.2c-3.6-0.8-7.8-2.3-7.7-6.8
				c0-3.8,3.2-5.9,6.9-6.8C337.3,404.1,339.9,403.4,342,402.9z"/>
			<path class="st6" d="M297.6,270c7.2,0,13.7,4.1,12.7,8.6c-1.4,6.7-7.2,7.5-12.8,7.7c-6.4,0.1-12.6-4.1-12.7-8.2
				C284.8,273.9,291,270,297.6,270z"/>
			<path class="st6" d="M338.8,269.6c1.2,0,2.5-0.1,3.7,0c4.6,0.5,8.7,2.3,8.9,7.3c0.2,4.7-4.1,6.4-8,7.6c-1.4,0.4-3,0.4-4.5,0.4
				c-5.8,0.1-11.4-0.6-13.1-7.2C324.7,273.6,331.3,269.6,338.8,269.6z"/>
			<path class="st6" d="M336.8,259.4c-5.7-0.7-10.9-1.9-12-8.2c-0.7-4,6.2-8.3,12.4-8.3c6.4-0.1,12.9,4.3,12.1,8.5
				C347.9,258.3,341.8,258.4,336.8,259.4z"/>
			<path class="st6" d="M298.1,444.5c-5.8-0.6-13.5-0.4-13.4-7.5c0-7,7.7-7.3,13.4-7.3c5.6-0.1,12.8,1.1,12.8,7.4
				C310.8,443.1,303.7,444.1,298.1,444.5z"/>
			<path class="st6" d="M341,443c-6.5,0.1-12.8,0-13.5-5.9c-0.6-6,5.8-7.1,10.7-8.2c1.7-0.4,3.5-0.8,5.2-0.4
				c4.3,1,10.8,0.3,10.5,6.9c-0.2,5.7-5.8,6.7-10.5,7.4C342.1,443.1,340.9,443,341,443z"/>
			<path class="st6" d="M257.4,285.1c-1.5-0.1-3,0-4.5-0.3c-4.4-1-8.6-3.2-8.3-8.1c0.2-4.4,4.2-6.6,8.5-6.9c3.2-0.2,6.6-0.4,9.6,0.5
				c3.6,1,7.3,3.3,6.9,7.7c-0.3,4.3-3.8,6.1-7.8,6.8C260.4,285,258.9,285,257.4,285.1z"/>
			<path class="st13" d="M297.9,260.1c-6.2,0.1-12.7-3.9-12.8-8c-0.1-4.1,6.3-8.2,12.6-8.2c6.4,0,13.1,4.3,12.3,8.4
				C308.7,258.7,303.1,259.4,297.9,260.1z"/>
			<path class="st6" d="M417.4,278.6c-4.3-0.7-9.6-1.4-10.7-7.6c-0.7-4.3,6.1-8.8,12.9-9c5.4-0.1,10.4,0.8,11.2,7.2
				C431.4,273.9,425,278.4,417.4,278.6z"/>
			<path class="st13" d="M218.2,283.1c-7.1,0-13.5-4.4-12.6-9c1.1-6.2,6.4-7.3,11.5-7.2c5.7,0.1,11.3,1.5,12.6,8.2
				C230.5,279.5,224.9,283.1,218.2,283.1z"/>
			<path class="st6" d="M258.4,259.4c-5.5-0.6-11.6-2-11.6-8.3c0-6.5,6.5-7.7,11.8-8c6.2-0.4,13.1,4.6,12.2,8.7
				C269.3,258.2,263.8,258.9,258.4,259.4z"/>
			<path class="st6" d="M339.6,466.8c-2.2-0.1-3.6,0.1-4.7-0.3c-3.4-1.1-7.9-1.5-8.1-6.4c-0.2-4.5,4-5.4,7.2-6.5
				c3.5-1.2,7.3-1.7,11-0.8c3.4,0.8,7.6,1.5,7.8,5.6c0.2,3.9-3.6,5.7-6.9,6.8C343.6,466,341.1,466.4,339.6,466.8z"/>
			<path class="st6" d="M221.1,241c4.9,0.6,10.9,1.7,11,8.2c0.2,6.3-5.8,7.5-10.9,7.9c-6.2,0.4-13.1-4.5-12.2-8.6
				C210.3,242.5,215.2,241.1,221.1,241z"/>
			<path class="st13" d="M259.2,233.4c-4-0.5-9.1-1.5-10.1-7.6c-0.7-4.2,5.4-8.3,11.6-8c5.2,0.3,10.1,2,11.4,7.7
				C273,229.4,266.5,233.5,259.2,233.4z"/>
			<path class="st13" d="M372.3,230.9c-5.9-0.1-11.6-1.8-11.5-7.6c0.1-6.1,6.1-7.8,11.8-7.7c5.4,0,11.2,1.6,11.1,7.5
				C383.5,229.4,377.4,230.6,372.3,230.9z"/>
			<path class="st13" d="M226.3,230.9c-7.1,0.2-12.7-1.2-13.1-7.1c-0.3-6,5.4-8,10.7-8.1c5.2-0.1,10.8,1.1,11.2,7.4
				C235.5,229.9,229.8,230.7,226.3,230.9z"/>
			<path class="st68" d="M411.4,226.3c-0.4,0.2-0.9,0.7-1.3,0.7c-5-0.2-10.3-0.6-12.4-6.1c-1.5-4.1,1.3-6.6,4.8-8.1
				c5.8-2.6,11.6-2.4,15.8,2.6c4.2,5.1-0.1,8-4.2,10.4C413,225.3,411.7,223.5,411.4,226.3z"/>
			<path class="st8" d="M365.7,245.4c5.3-6.2,12-5.7,18.4-2.8c6,2.7,5.9,7.9,0.3,11.4c-4.9,3-10.2,3.3-15.6,1.1
				C368.6,251.5,365.7,248.9,365.7,245.4z"/>
			<path class="st13" d="M360,204c-2.3-1.5-3.5-3.7-3.3-6.5c2.6-6.6,8.1-6.6,13.8-6.1c4.1,0.4,7.6,2.4,8,6.6
				c0.5,4.4-3.1,6.3-6.9,7.5C367.3,206.9,363.7,205.6,360,204z"/>
			<path class="st13" d="M339.7,474.9c4.2,0.6,10.3-0.3,11,5.2c0.7,5.7-5.6,6.2-9.7,7.3c-4.9,1.4-9.9,0.7-14.1-2.6
				c-1.5-1.2-2.1-2.8-0.8-4.6C329.5,475.8,334.6,475.5,339.7,474.9z"/>
			<path class="st13" d="M402.2,202.2c-5.2-0.7-10.6-1.7-10.7-7.6c-0.1-5.9,5.2-7.5,10.2-7.5c5.1-0.1,10.2,1.9,10.4,7.5
				C412.3,200.6,406.8,201.5,402.2,202.2z"/>
			<path class="st68" d="M441.4,221.6c-4.7-1.4-9.9-2.3-9.4-8.7c0.5-6.2,5.7-7.3,10.5-7.2c4.7,0.1,9.2,2.5,9,8
				C451.4,219.9,446.1,220.6,441.4,221.6z"/>
			<path class="st6" d="M388.6,400.7c-0.5,4.6,2.4,8.9,1.5,13.6c-1.4,2-3.6,1.6-5.4,1.6c-5.5,0.2-12.6,0.7-13.1-6.2
				c-0.4-6.3,6.4-7.9,11.9-8.9C385.1,400.4,386.9,400.7,388.6,400.7z"/>
			<path class="st62" d="M238,194.8c0.5,1.4,1.1,2.9,1.6,4.3c-6.5,8.3-11.6,9-21.1,3l0,0c-0.2-7.3,4.4-11.1,12.1-10.2
				C233.4,192.1,235.8,193.3,238,194.8z"/>
			<path class="st13" d="M325.5,183.6c-1.9-1.4-3.7-2.9-5.6-4.3c-0.6-4.3,1.1-7.4,5.2-8.7c4.7-1.5,9.4-1.4,13.1,2.3
				c3.5,3.4,2.6,6.8-1.2,9.2C333.5,184.3,329.5,184.4,325.5,183.6z"/>
			<path class="st68" d="M432.4,182.2c5.3-0.1,9.8,1.9,10.2,7.5c0.4,5.3-4.4,7.2-8.6,7.2c-4.8,0-9.9-2.1-10.2-7.7
				C423.5,184.1,427.6,182.2,432.4,182.2z"/>
			<path class="st68" d="M362.8,167.6c4.7,0.8,10,2.1,9.7,8c-0.3,5.7-6,6.4-10.2,6.4c-4.5,0-9.6-2.2-9.5-7.6
				C352.8,168.8,358,168,362.8,167.6z"/>
			<path class="st6" d="M424.5,247.1c-4.1,6.3-10.3,5.2-16.2,4.3c-3-0.5-5.4-2.9-6-6.1c-0.5-3.1,1.8-5.1,4.1-6.7
				c2.3-1.5,4.9-2.7,7.8-1.8C417.6,240.3,421.9,242.9,424.5,247.1z"/>
			<path class="st13" d="M242.4,177.9c-0.9,1-1.9,1.9-2.8,2.9c-1,0.2-2,0.4-2.9,0.7c-5,1.9-9.1,0.8-12.4-3.5c-1.7-2.2-1.1-4.3,0.5-6
				c3.5-3.8,7.7-5.2,12.7-3.3C241.8,170.2,243.7,173.2,242.4,177.9z"/>
			<path class="st8" d="M268,194.9c1.5,0.9,3,1.8,4.6,2.7c1.3,4.5,0.1,8-4.4,9.7c-4.9,1.7-9.7,1.9-14.1-1.7
				c-3.5-2.9-2.5-6.1-0.6-9.3c0.4-0.1,0.9-0.1,1.3,0C259.1,194.9,263.5,194.4,268,194.9z"/>
			<path class="st13" d="M395.5,178.4c-5.5-0.7-10.7-1.8-10.8-7.6c-0.2-5.3,4.5-6.5,9.1-6.5c5.2,0,10,1.6,10.3,7.3
				C404.2,176.9,399.2,177.6,395.5,178.4z"/>
			<path class="st6" d="M470.8,214.3c-4.5-0.4-8.5-2.5-8.6-7.9c-0.1-5.1,3.4-7.5,8.4-7.3c5.2,0.2,8.8,3.2,8.8,8.2
				C479.4,211.7,475.9,214.2,470.8,214.3z"/>
			<path class="st6" d="M344.9,221.7c0.6,0.5,1.2,1,1.8,1.4c-0.8,7-4.6,10.3-11.7,10.3c-7.3,0-11.1-3.3-11.5-10.3
				c0.6-0.5,1.2-1,1.8-1.5C331.9,220.9,338.4,220.7,344.9,221.7z"/>
			<path class="st13" d="M327.9,160.9c-4.9-0.7-9.6-1.6-9.7-6.9c-0.1-5.5,4.6-6.8,9-6.7c4.7,0.1,9.5,2.1,9.3,7.6
				C336.2,159.8,331.2,160,327.9,160.9z"/>
			<path class="st68" d="M425,173.4c-5.7-0.6-10.3-2.6-10.5-8.2c-0.2-4.4,4.2-6.5,7.9-6.3c4.7,0.4,9.7,2.3,9.9,8.2
				C432.5,172.2,428.2,172.6,425,173.4z"/>
			<path class="st68" d="M505.9,230.9c-5.7-0.3-8.2-4-8.2-8.4c0-4.3,3.3-7.8,7.8-7.5c4.7,0.3,7.9,3.8,7.8,8.6
				C513.2,228,510.4,230.8,505.9,230.9z"/>
			<path class="st13" d="M355.7,144.9c4.9,0.8,9.8,1.7,10.3,7.2c0.6,5.3-3.7,6.4-8,6.5c-4.8,0.1-9.4-1.3-10-6.7
				C347.4,146.6,352.2,146,355.7,144.9z"/>
			<path class="st13" d="M461.8,190.3c-5.4-0.2-9.2-2.8-9.7-7.8c-0.5-4.8,3.5-7.3,7.7-7.1c4.8,0.2,8.8,3.2,9.1,8.3
				C469.2,188.1,465.6,189.9,461.8,190.3z"/>
			<path class="st6" d="M267.5,160.9c-4.7-0.6-9.4-1.5-9.2-6.4c0.2-5.3,4.9-7.2,9.8-7c4.3,0.1,8.5,1.9,8.2,6.8
				C276,159.4,271.2,160.2,267.5,160.9z"/>
			<path class="st9" d="M343.8,202.1c-3.1,5.8-8.2,6.9-14,6c-3.9-0.6-7.5-2.4-7.9-6.7c-0.4-3.9,2.3-6.4,6.3-7
				c5.1,1.5,9.8,4.2,15.1,4.8C343.5,200.1,343.7,201.1,343.8,202.1z"/>
			<path class="st6" d="M297.3,161.7c-4.5-0.7-9.3-1.9-9.2-7c0.1-5,4.6-6.9,9.3-6.7c4.2,0.2,8.4,1.4,8.6,6.4
				C306.2,159.9,301.6,160.9,297.3,161.7z"/>
			<path class="st68" d="M385.4,141.7c5.1,1.4,10.1,3,9.6,8.4c-0.4,4.7-5,5.9-9.2,5.2c-4.3-0.6-8.8-2.5-8.7-7.6
				C377.2,142.6,382.2,142.6,385.4,141.7z"/>
			<path class="st13" d="M503,199.6c-0.3,4.4-2.6,7-6.6,6.8c-5-0.2-8.4-3-8.4-8.5c0-4.1,2.2-6.6,6.4-6.6
				C499.8,191.4,502,195.1,503,199.6z"/>
			<path class="st6" d="M289.3,220.3c0.5,0,1.1,0,1.6,0c5,3.9,10.1,7.1,16.4,2.8c3.4,3.3,2.1,6.3-1.1,8.5c-3.8,2.6-8,3.7-12.6,2.2
				C285.6,231.3,284.3,227.1,289.3,220.3z"/>
			<path class="st29" d="M447.8,153.5c5.1,0.3,8.9,2.9,9.2,8c0.3,4.3-3.3,6.1-7.2,5.6c-4.8-0.6-8.6-2.9-8.7-8.4
				C441.1,154.2,444.3,153.6,447.8,153.5z"/>
			<path class="st29" d="M324.2,138.9c-4-0.8-8.3-2-8.3-6.9c-0.1-4.6,3.8-6.2,7.9-6c4.3,0.2,8.5,2,8.6,6.7
				C332.5,137.2,328.3,138.4,324.2,138.9z"/>
			<path class="st68" d="M414.6,151c-4.6-1-9.1-2.1-9.6-7.8c-0.4-4.2,2.6-5.9,6.1-5.8c5.2,0.2,9.5,2.9,10.2,8.1
				C421.8,149.4,417.9,150.5,414.6,151z"/>
			<path class="st28" d="M350.6,124c4.4,1.1,9.1,2.7,8.8,7.8c-0.2,3.7-4.2,5.7-7.9,5.2c-4.2-0.6-9-2.2-8.6-7.6
				C343.2,125.4,346.8,123.9,350.6,124z"/>
			<path class="st29" d="M378.7,133.8c-4.5-0.8-9.3-1.8-9.6-7.4c-0.2-3.9,3.3-5.6,6.7-5.3c4.6,0.4,9.1,2,9.6,7.4
				C385.8,132.8,381.9,133.2,378.7,133.8z"/>
			<path class="st68" d="M483.6,182.7c-4.3-0.9-7.4-3.9-7.3-9c0.1-3.7,2.9-6,6.6-5.3c4.8,0.9,8.1,3.9,8,9.2
				C490.8,181.8,487.9,182.8,483.6,182.7z"/>
			<path class="st74" d="M270.9,126c3.9,0.4,7.5,2,7.3,6.1c-0.2,4.7-4.3,6.6-8.6,6.7c-4.1,0.1-7.8-1.5-7.5-6.4
				C262.5,127.3,266.8,126.5,270.9,126z"/>
			<path class="st13" d="M296.8,139.1c-3.8-0.2-7.6-1-7.7-6c-0.1-4.8,3.4-6.4,7.5-6.5c4.5-0.1,8.5,1.9,8.5,6.5
				C305.2,137.4,301.1,139,296.8,139.1z"/>
			<path class="st29" d="M532.9,215.1c-0.7,3.4-1.6,7-5.8,6.5c-4.9-0.6-7.1-4.5-7.2-9c0-3.4,1.9-6.8,5.7-6.5
				C530.6,206.6,532.1,210.8,532.9,215.1z"/>
			<path class="st1" d="M372.1,268.3c2.3-1.1,4.7-2.3,7.4-1.5c4.1,3.6,8.9,6.8,7.6,13.5c-1.4,0.6-2.8,1.2-4.3,1.8
				C373.6,282.7,369.7,277.7,372.1,268.3z"/>
			<path class="st37" d="M409.4,124.9c-0.6,3.1-2.8,4.7-5.8,4.6c-4.9-0.1-9-2.4-10-7.3c-0.8-3.8,2.8-5.3,5.8-5.1
				C404,117.6,407.9,119.8,409.4,124.9z"/>
			<path class="st68" d="M509,188.6c0.2-3.9,1.7-6.6,5.4-5.9c4.8,0.9,7,4.7,7.2,9.3c0.1,3.3-1.7,6.2-5.5,5.4
				C511.4,196.5,509.1,193.1,509,188.6z"/>
			<path class="st6" d="M434.6,132.6c5,0.5,8.9,2.9,9.3,8c0.3,3.6-3,4.9-6.4,4.4c-4.9-0.7-8.7-3.2-8.9-8.4
				C428.5,133,431.6,132.5,434.6,132.6z"/>
			<path class="st74" d="M477.7,155.5c-0.3,3.5-2.4,5-5.6,4.6c-5.1-0.6-8.2-3.6-8.5-8.8c-0.2-3.5,2.2-5,5.4-4.6
				C474,147.3,476.8,150.6,477.7,155.5z"/>
			<path class="st130" d="M328.3,112.6c-0.5,3.1-2.7,4.9-6,5.1c-4.4,0.3-8.2-1.4-8.7-6.2c-0.4-3.3,2.4-5.3,5.7-5.7
				C323.1,105.3,328,108.9,328.3,112.6z"/>
			<path class="st28" d="M343,104.1c4.4,0.9,8.4,2.5,8.8,7.1c0.3,3.5-2.8,5.2-6.1,5c-4.2-0.3-8-1.9-8.4-6.8
				C337,105.4,340.1,104.5,343,104.1z"/>
			<path class="st29" d="M509,168.8c-0.1,3.6-1.7,6.2-4.9,5.8c-4.7-0.6-7.4-4.2-8.2-8.6c-0.5-2.9,1.1-6,4.4-5.7
				C505.3,160.7,507.6,164.7,509,168.8z"/>
			<path class="st131" d="M296.8,118.2c-3.7-0.2-7.2-1.7-7.3-5.7c-0.1-3.9,3.1-6.2,7-6.2c3.7,0,7.1,1.9,7.4,5.9
				C304.2,116.6,300.7,117.9,296.8,118.2z"/>
			<path class="st28" d="M365.8,101.6c4.2,1.2,8.7,2.3,9,7.5c0.2,3.4-2.7,4.7-5.6,4.3c-4.4-0.5-8.5-2.3-9-7.3
				C359.9,102.7,363,101.9,365.8,101.6z"/>
			<path class="st68" d="M420.3,112.4c4.5,0.9,8.4,3.4,9.4,8.1c0.7,2.9-2.6,4.4-5.1,4c-4.6-0.8-8.8-2.7-9.1-8.3
				C415.3,113.3,417.4,112.4,420.3,112.4z"/>
			<path class="st29" d="M457.9,138.9c-4.3-0.8-7.8-3.6-8.9-8.3c-0.8-3.2,1.6-4.5,4.5-4.3c5,0.5,8.5,3.4,9.5,8.1
				C463.7,137.3,461.4,138.9,457.9,138.9z"/>
			<path class="st37" d="M396.2,105.6c-0.1,2.9-1.9,4.4-4.3,4.3c-4.8-0.3-8.8-2.5-10-7.5c-0.6-2.6,1.5-4.1,4-4.1
				C391,98.3,394.1,101.3,396.2,105.6z"/>
			<path class="st28" d="M494.5,148.8c0,1.9-1.1,3.8-3.9,3.5c-5-0.5-7.9-3.8-9-8.5c-0.6-2.6,0.7-4.3,3.3-4.8
				C488,138.5,494.2,144.5,494.5,148.8z"/>
			<path class="st68" d="M546.9,205c-0.2,3.2,0.2,6.8-3,6.6c-5.2-0.3-6.3-5.2-7-9.3c-0.4-2.6,0.7-6.6,4-5.9
				C545.1,197.3,546.6,201.5,546.9,205z"/>
			<path class="st54" d="M301.4,184c-7.7,2-11.9,0-14.8-7c2-2.6,3.5-5.8,7.4-6.2C298.7,173.9,300.5,178.7,301.4,184z"/>
			<path class="st28" d="M437.7,107c4.3,1,8,3.5,9.3,8.2c0.7,2.8-1.7,4.1-4.2,3.5c-4.7-1-8.3-3.8-9.4-8.6
				C432.7,107.5,435.1,107,437.7,107z"/>
			<path class="st132" d="M525.3,178.3c0.3-2-0.3-5.3,3-4.7c5.2,1,6.5,5.7,7.4,10.1c0.4,2.3-0.8,5-3.6,4.3
				C527.5,186.8,525.3,183.2,525.3,178.3z"/>
			<path class="st6" d="M459.3,238.2c-6.7,0.4-13.3,0-19.5-2.9C448.1,227.4,456.2,228.6,459.3,238.2z"/>
			<path class="st11" d="M307.4,223.1c-4.7,6.9-11.5,5.8-16.4-2.8c4.9-3.2,9.8-1.5,14.7-0.1C306.2,221.2,306.8,222.1,307.4,223.1z"
				/>
			<path class="st37" d="M468.2,119.3c3.9-0.3,10.3,5.7,10.4,9.1c0,2.3-1.3,3.2-3.3,3.1c-5.3-0.2-7.9-3.9-9.6-8.2
				C464.8,121,466.2,119.5,468.2,119.3z"/>
			<path class="st37" d="M302.6,93.1c-0.4,3.5-2.3,5.2-5.9,5.3c-3.5,0.1-6.2-1.5-6.2-5c0-3.4,2.7-5.4,5.9-5.6
				C299.7,87.6,301.8,89.7,302.6,93.1z"/>
			<path class="st37" d="M400.7,97.6c0.2-2.8,1.8-4,4.1-3.5c4.2,1,8.2,2.9,9.4,7.6c0.6,2.5-1.6,4-3.6,3.6
				C405.9,104.5,402.1,102.2,400.7,97.6z"/>
			<path class="st37" d="M522.3,161.7c-0.2,2.3-0.9,4.7-3.4,4c-4.8-1.4-7.1-5.3-7.9-10c-0.3-2,0.8-4.6,3.3-3.8
				C519,153.2,521.1,157.2,522.3,161.7z"/>
			<path class="st37" d="M364.1,90.6c-0.4,3.1-2.7,3.9-4.9,3.7c-3.9-0.4-7.4-1.9-8.1-6.3c-0.5-2.9,1.8-4.2,4.2-4
				C359.5,84.4,362.6,86.7,364.1,90.6z"/>
			<path class="st29" d="M336.3,86.1c3.6,1,7.3,2.1,7.3,6.9c0,2.8-2.2,4-4.5,3.8c-3.8-0.4-7.4-1.9-7.7-6.4
				C331.1,87.1,333.6,86.4,336.3,86.1z"/>
			<path class="st68" d="M323.2,93.7c-0.8,3.5-3.1,4.7-6.1,4.4c-3.7-0.4-6.3-2.7-6.1-6.3c0.2-2.9,2.7-4.7,6-4.3
				C320.6,88,322.5,90.3,323.2,93.7z"/>
			<path class="st59" d="M503.6,144.1c-4.5-1.7-7.4-4.9-8.3-9.7c-0.4-2.1,0.7-3.6,3-3.1c5,1.2,7.2,5.1,8.6,9.6
				C507.6,143.3,505.6,143.8,503.6,144.1z"/>
			<path class="st28" d="M378.9,91.4c-4.8-0.7-8.3-2.8-9.6-7.3c-0.6-2.1,1.4-3.2,3.2-3.1c4.4,0.4,8.1,2.5,9.7,6.8
				C383.2,90.5,380.5,90.9,378.9,91.4z"/>
			<path class="st37" d="M430,98.6c0,0.9-1.6,1.5-3.4,1.2c-4.7-0.8-8.3-3.2-9.9-7.7c-0.6-1.7,0.7-2.6,2.4-2.8
				C422.3,88.9,429.7,94.2,430,98.6z"/>
			<path class="st8" d="M387.1,280.3c-1-5.3-5.7-8.6-7.6-13.5c1.9,0.1,4-0.3,5.8,0.3c3,1,6.2,2.5,6.8,6.1
				C392.6,276.8,390.3,279,387.1,280.3z"/>
			<path class="st34" d="M461.1,109c-0.3,3-1.6,3.7-3.6,3.2c-4.6-1.3-8.1-3.9-9.3-8.7c-0.6-2.3,1.7-2.8,3.5-2.4
				C456.4,102.2,459.3,105.4,461.1,109z"/>
			<path class="st28" d="M266.4,113.5c3.1-2.9,8.4-2,10.8-6.2c4.3,2.7,4.2,6,0.4,8.6C273.5,118.7,269,119.8,266.4,113.5z"/>
			<path class="st133" d="M479.7,111.9c4.5,0.4,10.8,7.2,10.3,10c-0.3,1.8-1.7,2.5-3.3,1.9c-4.5-1.6-7.6-4.7-8.6-9.4
				C477.7,112.6,479.2,111.9,479.7,111.9z"/>
			<path class="st132" d="M372.1,268.3c1,6.6,1.4,13.7,10.7,13.8c-2.8,2.1-5.7,0.7-8.5,0.2c-3.6-0.7-6.9-2.6-7.7-6.2
				C365.8,272.1,368.7,269.8,372.1,268.3z"/>
			<path class="st134" d="M283.5,21.8c7-2.5,13.3-1.2,19.5-1.2c1.3,0,2.2,1.2,2.2,2.6c0,1.4-1.5,1.7-2.1,1.5
				C297.1,22.6,290.2,26.4,283.5,21.8z"/>
			<path class="st135" d="M398.1,85c-0.3,2-1.6,2.4-3.2,2.4c-3.5,0-10.1-5.6-9.6-8.2c0.4-1.8,1.8-2.3,3.4-1.8
				C392.8,78.8,396.5,80.8,398.1,85z"/>
			<path class="st136" d="M344.3,67.8c3.7,0.8,7,2.5,7.9,6.6c0.5,2.3-1.6,2.9-3.4,2.7c-3.8-0.4-6.5-2.5-7.7-6.1
				C340.4,68.6,342.2,68.1,344.3,67.8z"/>
			<path class="st34" d="M442.6,93.2c-5.9,2.1-8.9-1.8-12.2-5.2c-0.9-0.9-1.6-2.1-0.6-3.2c0.9-1,2.3-0.8,3.5-0.3
				C437.5,86.2,441.4,88.1,442.6,93.2z"/>
			<path class="st137" d="M544.8,174.8c0,2-0.7,3.8-2.4,3c-4.1-1.9-6-5.7-6.4-10.2c-0.2-1.5,0-3.9,1.8-3.2
				C542.5,166.1,543.3,170.9,544.8,174.8z"/>
			<path class="st42" d="M424.5,247.1c-4.7-2.2-9.3-4.4-10.3-10.3C423.6,236.6,427,240.1,424.5,247.1z"/>
			<path class="st49" d="M152.2,83c-3,1.7-5.1,4.7-8.5,5.6c-1.2,0.3-2.5,0.9-3.3-0.3c-0.4-0.6-0.3-2,0.1-2.7
				c2.3-3.3,5.5-5.8,9.4-6.6C153.1,78.4,152.3,81.1,152.2,83C152.1,83,152.2,83,152.2,83z"/>
			<path class="st28" d="M301.3,75.6c0,3.2-2.1,4.7-4.6,5c-2.8,0.3-4.9-1.7-5.2-4.2c-0.4-3.1,1.7-5.2,4.9-5.3
				C299.1,71,300.6,73.1,301.3,75.6z"/>
			<path class="st68" d="M318.4,76.2c-0.4,2.6-2,4.2-4.5,4c-2.9-0.3-5.2-1.9-5.6-5.1c-0.3-2.6,0.9-4.2,3.8-4.3
				C315.9,70.8,317.3,73.3,318.4,76.2z"/>
			<path class="st138" d="M462.3,94.4c3.6,1.6,7.4,4,9.1,8.5c0.5,1.3-0.2,2.4-1.8,2.5c-2.6,0.2-10.3-6.6-10.2-9.1
				C459.4,94.9,460,93.9,462.3,94.4z"/>
			<path class="st139" d="M411.5,80.7c-0.2,2.3-1.7,2.7-3.3,2.2c-4.1-1.3-7.9-3.4-9-7.9c-0.4-1.4,1.2-1.9,2.6-1.4
				C405.8,74.9,409.7,76.5,411.5,80.7z"/>
			<path class="st37" d="M335.5,75.3c0.1,2.3-1,3.4-3.1,3.5c-3.8,0.2-6.3-1.6-7.2-5.2c-0.6-2.3,0.5-4.1,3.1-4
				C331.9,69.9,334.2,72.1,335.5,75.3z"/>
			<path class="st6" d="M182.6,330.2c-2.5-4.6-5.1-9.2-7.6-13.9C185.4,318.5,188.2,323.6,182.6,330.2z"/>
			<path class="st58" d="M530.3,152.9c-0.1,1,0.5,2.4-1.3,2.8c-2.3,0.5-7.9-6.6-7.9-10c0-1.4,0.2-2.5,1.8-2.6
				C525.3,143,530,149.2,530.3,152.9z"/>
			<path class="st86" d="M514.9,132.6c0.1,1.4-0.2,3.1-1.7,2.5c-4.4-1.7-7.1-5.3-8.6-9.8c-0.4-1.2,0.1-3.1,1.6-2.5
				C510.6,124.7,513.2,128.3,514.9,132.6z"/>
			<path class="st59" d="M104.5,104.6c-0.8,7.2-4.7,10.4-12.2,12.8C94.5,110.1,97.9,106.6,104.5,104.6z"/>
			<path class="st23" d="M343.3,199.1c-6.6,3.2-10.6-1.4-15.1-4.8c0.1-0.4,0.2-0.7,0.3-1.1C334.2,193.3,340.1,192.8,343.3,199.1z"/>
			<path class="st140" d="M111.9,98c0.5-1.4,0.7-2.4,1.3-3.1c2.5-3.2,5.4-5.9,9.5-6.8c1.2-0.2,1.6,1.3,1.1,2.2
				C121.2,94.6,118.2,98.3,111.9,98z"/>
			<path class="st59" d="M356.1,67.8c0-1.5,0.9-2.7,2.2-2.4c4,0.9,7.7,2.5,9.1,6.8c0.7,2-1.4,2.4-2.9,2.1
				C360.6,73.6,357.6,71.5,356.1,67.8z"/>
			<path class="st85" d="M496.8,115.9c-5.6-1.8-9.1-5.1-10.5-11C493.8,106.4,496,108.7,496.8,115.9z"/>
			<path class="st47" d="M301.4,184c-3.7-0.9-4-1-2.4-3.7c1.4-2.4-0.6-3-1.7-3.9c-1.9-1.5-4.2-2.6-3.4-5.7c0.9-0.1,1.9-0.2,2.8-0.2
				c4.5,2.7,8.1,6,7.5,11.9C303.3,183,302.4,183.5,301.4,184z"/>
			<path class="st8" d="M304.3,182.5c-2.5-4-5-7.9-7.5-11.9c9.7,1.1,12,4.1,9,11.7C305.3,182.4,304.8,182.5,304.3,182.5z"/>
			<path class="st133" d="M452.3,87.4c-6.9,0.3-10.4-3.3-13.7-8.6C445.6,78.4,449.1,81.9,452.3,87.4z"/>
			<path class="st139" d="M408.6,68.8c6,0.2,9.4,2.3,12.4,5.4c0.8,0.8,2,1.8,1,3.1c-1,1.3-2.3,0.4-3.4,0
				C414.9,75.9,411.7,73.8,408.6,68.8z"/>
			<path class="st141" d="M145.5,73.3c-2.8,4.9-6.9,7.6-12.3,9C135.3,76.1,138.6,73.7,145.5,73.3z"/>
			<path class="st142" d="M378.6,58.9c7,0.8,10.9,3.1,14.7,7.8C386.3,67.7,382.8,64.4,378.6,58.9z"/>
			<path class="st143" d="M368.9,63.4c0.8-0.4,1.3-0.9,1.7-0.9c4.2,0.9,8,2.6,10.2,6.5c0.5,1-0.1,2-1.4,2
				C374.1,70.9,371.2,67.7,368.9,63.4z"/>
			<path class="st144" d="M465.6,87.2c7.5,1.4,10.7,4.9,13.6,10.5C472.4,97.1,469.5,93.1,465.6,87.2z"/>
			<path class="st145" d="M431.9,72.9c-7.1-1.2-11.1-3.8-14.6-9.1C423.4,64.7,427.8,66.7,431.9,72.9z"/>
			<path class="st142" d="M82.1,114.1c-2.7,6.1-4.9,10.4-11,12.7C72.8,120.7,75.9,117.2,82.1,114.1z"/>
			<path class="st146" d="M333,53.5c3.1,1.1,6.1,2.4,7.1,5.9c0.4,1.4-0.9,2.5-2.2,2.2c-3.3-0.8-6.1-2.4-7.1-5.9
				C330.4,54.2,331.5,53.4,333,53.5z"/>
			<path class="st59" d="M299.8,60.3c-0.3,2.3-1.6,3.9-3.7,3.9c-2.2,0-3.6-1.6-3.6-3.8c0-2.4,1-4.4,3.9-4.1
				C298.6,56.4,299.5,58.2,299.8,60.3z"/>
			<path class="st58" d="M326.8,60.1c-0.3,2.5-1.7,2.9-3.3,2.5c-2.9-0.6-4.8-2.4-5.3-5.3c-0.3-1.7,0.8-3,2.6-2.5
				C323.8,55.6,325.6,57.9,326.8,60.1z"/>
			<path class="st58" d="M63.6,134.7c-0.8,5.4-3.2,9.5-8.8,12.8C56.4,141.4,58.9,137.3,63.6,134.7z"/>
			<path class="st147" d="M457.3,80.8c-4.9-0.9-8.9-3-11.8-8.4C451.6,73.3,455.1,76.1,457.3,80.8z"/>
			<path class="st148" d="M100.3,96.2c-2.5,6.4-5.8,9.6-11.5,12.2C90.8,102.3,94.4,99.2,100.3,96.2z"/>
			<path class="st149" d="M353.5,58.9c-6.6,0.4-9.1-2.7-12.7-7.4C347,51.9,349.9,54.5,353.5,58.9z"/>
			<path class="st130" d="M313.2,60.6c-0.6,2.4-1.9,3.5-3.9,3c-2.5-0.6-3.7-2.3-3.7-4.9c0-1.7,0.8-2.8,2.7-2.7
				C311.5,56.2,312.3,58.7,313.2,60.6z"/>
			<path class="st150" d="M387.8,55.8c7.2,0.4,11.1,2.5,14.1,7.3C396.2,63.1,392.7,60.2,387.8,55.8z"/>
			<path class="st151" d="M436.7,66.8c-5.9-1-9.9-3.1-13.8-8.1C428.9,60,433.1,61.7,436.7,66.8z"/>
			<path class="st37" d="M494.2,261c0.1-4.4-2.6-7.9-3.5-12C496.5,251.7,499.3,255.2,494.2,261z"/>
			<path class="st28" d="M277,97.8c-1.3-3.6,1.6-6.5,1.6-9.9C284.7,92.3,282.8,95.4,277,97.8z"/>
			<path class="st18" d="M365.7,245.4c1.7,3,6.4,5.1,3,9.7C364.7,252.8,361.8,250.1,365.7,245.4z"/>
			<path class="st134" d="M516.5,124.6c-4.1-1.9-6-5.3-8.3-10.6c5.7,2.5,8.2,5.5,9.1,9.9C517,124,516.7,124.3,516.5,124.6z"/>
			<path class="st141" d="M119.3,82c-2.7,4.2-5.8,6.9-10.3,8.8C111.9,84.5,112.5,84,119.3,82z"/>
			<path class="st49" d="M168.5,58.4c-4.4,5.2-7.8,8-13.7,8.5C158,61.5,162.5,60.5,168.5,58.4z"/>
			<path class="st152" d="M481,89.8c-5-2-7.6-4-9.7-7.1C476.4,82.8,476.4,82.8,481,89.8z"/>
			<path class="st140" d="M351.5,50.1c6.1-0.3,8.6,2.6,12.2,5.6C357.9,57,355.4,54,351.5,50.1z"/>
			<path class="st153" d="M490.2,96.2c5.5,2.8,8.5,5.6,10.6,11.8C495.7,104.4,492.3,101.8,490.2,96.2z"/>
			<path class="st142" d="M308,47.5c-0.4,1.2-0.9,2.5-2.5,2c-2.1-0.7-2.9-2.5-2.9-4.6c0-1.2,0.5-2.6,2.2-2
				C306.8,43.8,307.6,45.6,308,47.5z"/>
			<path class="st154" d="M334.2,19.5c-5,2.6-7.9,2.2-11.7,1.1C325.9,17.4,329,18.5,334.2,19.5z"/>
			<path class="st155" d="M395.6,51.9c4.9,0.1,8.1,1.6,11.5,5.1C401.7,57.9,399,55.4,395.6,51.9z"/>
			<path class="st156" d="M130.2,74.3c1.6-3.4,4.1-5.5,8.9-6.3C137,72.4,133.8,73.5,130.2,74.3z"/>
			<path class="st157" d="M189.5,48.6c-3.2,2.9-6.5,5.3-12,5.7C181.1,49.9,185.1,48.7,189.5,48.6z"/>
			<path class="st158" d="M298.2,46.5c-0.1,1.7-0.8,3.2-2.4,3.2c-1.9,0.1-2.2-1.6-2.2-3.1c0-1.4-0.1-3.3,1.8-3.5
				C297.5,43,298,44.8,298.2,46.5z"/>
			<path class="st151" d="M164.2,54.2c-4.3,3.9-7.4,5.7-11.2,6C155.4,57.3,158.1,55.1,164.2,54.2z"/>
			<path class="st58" d="M373.3,53.6c-5.8-0.4-8.5-2.4-11.5-4.6C366.4,47.5,369,49.9,373.3,53.6z"/>
			<path class="st159" d="M368.5,45c4.7,0.2,7.7,1.6,11.1,5.3C374.9,49.6,371.5,48.9,368.5,45z"/>
			<path class="st140" d="M311.8,42.3c3.7,0.8,5.4,2.6,6.1,6.2C313.6,48.4,312.1,46.5,311.8,42.3z"/>
			<path class="st160" d="M319.7,42.8c5.1-0.7,6.9,1,8.2,4.5C324.1,48.1,322.5,45.8,319.7,42.8z"/>
			<path class="st145" d="M449.5,68.7c5.1-1.2,7.1,0.8,9.4,3.5C454.9,73.5,453.1,70.6,449.5,68.7z"/>
			<path class="st161" d="M409.1,36.7c-3.6,2.5-6.7,5.7-7-1.3C404.6,34.2,406.1,36.8,409.1,36.7z"/>
			<path class="st162" d="M355.5,33.5c0-1.4-3.8-1.9-0.9-3.9c1.4-0.9,3.9-1.5,4.4,0.3C359.7,32.1,357.7,33.3,355.5,33.5L355.5,33.5z
				"/>
			<path class="st163" d="M230.3,30.2c3.5-1.9,5.6,0.1,8.6,0.7C235.6,32.9,233.2,33.4,230.3,30.2z"/>
			<path class="st164" d="M335.8,39.9c4.3-0.8,5.9,1.5,9.5,4C340.6,44,338.5,42.4,335.8,39.9z"/>
			<path class="st165" d="M353.9,36.5c-3.1,4.2-5.3,0.3-9.5-0.4C349,34.4,351.3,37.1,353.9,36.5L353.9,36.5z"/>
			<path class="st166" d="M176.7,48.2c1.9-2.7,4.3-3,6.8-2.9C181.8,47.4,180,49.1,176.7,48.2z"/>
			<path class="st167" d="M328.3,41.4c4.1-0.6,5.9,1,7.5,3.8C332.6,45.6,330.8,43.8,328.3,41.4z"/>
			<path class="st25" d="M411.4,226.3c-0.8-0.7-2.8,0-2.2-1.9c0.2-0.8,1.2-1.9,1.7-1.9c1.9,0.1,3,1.3,3.1,3.3
				C413.1,225.9,412.2,226.1,411.4,226.3z"/>
			<path class="st168" d="M354.3,22.7c-2.2-0.6-4.3-1.1-7.5-1.9C350.3,19.6,352.6,19.5,354.3,22.7z"/>
			<path class="st169" d="M74.9,113.2c0.3-2.9,2.3-3.8,5.5-6.5C79,110.7,77.9,112.3,74.9,113.2z"/>
			<path class="st170" d="M378.9,29.7c2.9-0.6,2.8,0.3,2.8,1.3c0,1.1,0.4,2.6-1.6,2c-0.9-0.3-2.3-1.1-2.2-1.6
				C378.1,30.5,379,29.6,378.9,29.7z"/>
			<path class="st171" d="M377.9,25.5c-3.4,0.7-5-0.6-6.9-1.7C373.8,22.5,375.5,24.3,377.9,25.5z"/>
			<path class="st172" d="M354,36.6c0.1-1.2,0.3-2.4,1.5-3l-0.1,0c1.4,0.9,2.7,1.7,5.3,3.4C357.6,36.7,355.8,36.6,354,36.6
				C353.9,36.5,354,36.6,354,36.6z"/>
			<path class="st173" d="M181.8,37.3c1.7-1.2,3.1-2.7,5.7-1.6C185.7,37.2,184.3,38.7,181.8,37.3z"/>
			<path class="st174" d="M212.5,36.4c-1.8-0.5-3.5,2.2-5.7-0.2C208.9,34.6,210.6,34.3,212.5,36.4C212.4,36.5,212.5,36.4,212.5,36.4
				z"/>
			<path class="st175" d="M490.4,90.8c4,0.4,5.1,2,6.2,4C493.8,95.1,492.9,93,490.4,90.8z"/>
			<path class="st133" d="M411.7,53.6c-3.6-1.2-5.6-1.9-8.2-2.8C406.8,49.5,409,49.5,411.7,53.6z"/>
			<path class="st167" d="M382.4,44.7c-3.2,1.8-4.5-0.8-8.1-0.9C378.3,41.8,380,43.4,382.4,44.7z"/>
			<path class="st176" d="M413.3,43.3c-2.3,0.5-3.8-0.7-5.7-1.5C410,40.4,411.8,40.8,413.3,43.3z"/>
			<path class="st165" d="M379.1,35.6c1.6-0.8,3.7-1.2,4.1,0.2c0.8,2.8-1.2,1.6-2.4,1.1C380.2,36.6,379.7,36.1,379.1,35.6z"/>
			<path class="st142" d="M429.9,56.5c2.9-1,4.2-0.2,5.1,2.1C432.8,59.4,431.4,58.2,429.9,56.5z"/>
			<path class="st177" d="M136.8,64.7c-0.5-0.5-1.4-0.9-1.4-1.3c-0.1-1.3,1.1-1.5,2-1.6c0.3-0.1,1,0.2,1.1,0.5
				C138.8,63.5,137.6,63.8,136.8,64.7z"/>
			<path class="st178" d="M117.2,75.2c-0.3,2.6-1.6,4.1-2.8,3.8c-2.3-0.5-0.7-1.6,0.1-2.3C115,76.2,115.8,76,117.2,75.2z"/>
			<path class="st179" d="M476.1,79.6c0.1-1.1,0.3-2,1.3-1.4c0.8,0.5,1.6,1.2,2,2.1c0.5,1.1-0.5,1.2-1.2,0.9
				C477.3,80.8,476.7,80.1,476.1,79.6z"/>
			<path class="st180" d="M213.9,26.8c-0.2,0.4-0.5,1-0.8,1.5c-0.5-0.3-1.4-0.6-1.4-0.9c0-0.6,0.4-1.4,0.8-1.7
				C213.2,25.2,213.7,25.8,213.9,26.8z"/>
			<path class="st181" d="M232.9,27.6c-0.7-0.5-1.7-0.8-1.7-1.2c-0.2-1.6,1.2-0.9,2-1c0.7-0.1,1.6-0.1,1.4,0.9
				C234.4,26.8,233.6,27.1,232.9,27.6z"/>
			<path class="st182" d="M61.3,130.8c-0.3-1.2-0.8-1.9-0.6-2.4c0.4-0.8,1.1-1.4,1.7-2.1c0.2,0.5,0.7,1.2,0.5,1.6
				C62.6,128.7,62,129.5,61.3,130.8z"/>
			<path class="st183" d="M416.1,35.9c0.6,0.5,1.6,1,1.9,1.7c0.3,0.9-0.7,0.9-1.4,0.7c-0.9-0.3-2-0.5-1.8-1.8
				C414.7,36.3,415.4,36.1,416.1,35.9z"/>
			<path class="st184" d="M394.4,298.3c-2.8,0.2-4.2-1.1-4.2-3.9C392.4,294.9,393.9,296.1,394.4,298.3z"/>
			<path class="st168" d="M436.7,54c-2.6,0.2-4.5-0.4-4.5-1.6c0-1.6,1.6-1,2.6-0.5C435.4,52.3,435.8,53,436.7,54z"/>
			<path class="st185" d="M161.9,45.6c-0.8,2.4-2.4,2-4.1,2.8C158.5,45.4,160,45.6,161.9,45.6z"/>
			<path class="st68" d="M71.7,364.5c-7.1-0.9-13.4-8-12.4-12.7c0.8-3.5,3.1-5.6,7-5c5.2,0.8,11.5,8.1,10.7,12.6
				C76.3,363.4,73.7,364.7,71.7,364.5z"/>
			<path class="st23" d="M72.6,390.4c-5.9-0.2-12.2-6.5-12.1-11.7c0-3.4,1.6-5,5-5c5.3,0,12.6,7.2,12.3,12.3
				C77.6,389.4,75.6,390.7,72.6,390.4z"/>
			<path class="st13" d="M68.3,399.2c4.9,0.2,13,8,12.5,12.2c-0.3,2.9-2.2,4.3-5.1,4.2c-5.1-0.1-12.5-7.5-12.3-12.3
				C63.5,400.1,65.4,399.1,68.3,399.2z"/>
			<path class="st29" d="M49.1,348.8c-0.2,2.3-0.3,5.1-4.2,5.4c-4.2,0.3-9.6-5.9-9.8-11.5c-0.1-3.1,0.3-6.3,4.4-6.3
				C43.7,336.3,49,343.3,49.1,348.8z"/>
			<path class="st6" d="M50.3,320.7c-0.1,3.8-1.1,6.4-5,6.5c-4.2,0.1-9-5.8-9-11.1c0-3.6,1.2-7.1,5.3-6.3
				C47.3,310.9,49.9,315.4,50.3,320.7z"/>
			<path class="st130" d="M71,423.6c5.2-0.2,13.3,6.8,14.1,11c0.4,2.5-0.7,3.8-2.9,4.3c-4.7,1.1-13.8-6.6-13.8-11.6
				C68.4,424.9,69.5,423.7,71,423.6z"/>
			<path class="st54" d="M36.3,367.8c0-2.4,0.4-4.5,3.5-4.6c4.3-0.1,10.7,7.9,10.5,13c-0.1,2.8-1.4,4.1-4.1,4.1
				C41.8,380.2,36.1,373,36.3,367.8z"/>
			<path class="st68" d="M53.2,401.7c0.1,2.4-0.8,3.8-3.5,3.6c-4.2-0.3-10.4-8-10.2-12.7c0.1-2.2,0.6-4,3.5-3.7
				C46.9,389.3,53.4,397.4,53.2,401.7z"/>
			<path class="st30" d="M58.9,426c0,3.5-2.1,4.3-4.9,2.7c-5-2.8-8.6-6.9-9.3-12.9c-0.2-1.4,1.3-2.3,2.6-2c5.9,1.5,9,5.9,11.3,11.1
				C58.8,425.3,58.8,425.5,58.9,426z"/>
			<path class="st59" d="M65.7,449.4c0,1.9-1,3-2.8,2.3c-1.6-0.6-3.2-1.5-4.4-2.7c-3.1-2.9-6.5-5.7-6.2-10.5
				c0.1-1.5,1.5-1.5,2.9-1.1C59.1,438.4,65.9,446,65.7,449.4z"/>
			<path class="st153" d="M98.3,408.4c0,4.4,0.1,8.7,0.1,13.1c-3.6-2.1-6.6-4.8-6.1-9.3C92.6,409,95.1,407.8,98.3,408.4z"/>
			<path class="st4" d="M296.4,209.3c-3.9-0.7-8.8-1.8-9.8-7.5c-0.7-3.9,5.5-8.4,11-7.9c4.8,0.4,9.8,1.6,10.8,7.5
				C309.1,205.3,303,209.4,296.4,209.3z"/>
			<path class="st7" d="M264.7,184.3c-4.6-0.6-9.7-1.6-9.8-7.1c-0.1-5.5,4.8-7,9.6-7.1c5.1-0.2,10.2,1.2,10.1,7.2
				C274.6,182.9,269.2,183.4,264.7,184.3z"/>
			<path class="st4" d="M344.9,221.7c-6.5,2.5-13.1,2.4-19.6-0.1C332.6,216.6,337.8,216.6,344.9,221.7z"/>
			<path class="st96" d="M268,194.9c-4.3,1.5-8.7,1.8-13.2,1.3C258.9,192.7,263.3,192.3,268,194.9z"/>
		</g>
	</g>
</g>
</svg>
